<?xml version="1.0" encoding="utf-8" standalone="no"?>
<!DOCTYPE svg PUBLIC "-//W3C//DTD SVG 1.1//EN"
  "http://www.w3.org/Graphics/SVG/1.1/DTD/svg11.dtd">
<svg xmlns:xlink="http://www.w3.org/1999/xlink" width="1202.175pt" height="498.7075pt" viewBox="0 0 1202.175 498.7075" xmlns="http://www.w3.org/2000/svg" version="1.1">
 <metadata>
  <rdf:RDF xmlns:dc="http://purl.org/dc/elements/1.1/" xmlns:cc="http://creativecommons.org/ns#" xmlns:rdf="http://www.w3.org/1999/02/22-rdf-syntax-ns#">
   <cc:Work>
    <dc:type rdf:resource="http://purl.org/dc/dcmitype/StillImage"/>
    <dc:date>2022-12-07T19:32:37.347020</dc:date>
    <dc:format>image/svg+xml</dc:format>
    <dc:creator>
     <cc:Agent>
      <dc:title>Matplotlib v3.5.1, https://matplotlib.org/</dc:title>
     </cc:Agent>
    </dc:creator>
   </cc:Work>
  </rdf:RDF>
 </metadata>
 <defs>
  <style type="text/css">*{stroke-linejoin: round; stroke-linecap: butt}</style>
 </defs>
 <g id="figure_1">
  <g id="patch_1">
   <path d="M 0 498.7075 
L 1202.175 498.7075 
L 1202.175 0 
L 0 0 
L 0 498.7075 
z
" style="fill: none"/>
  </g>
  <g id="axes_1">
   <g id="patch_2">
    <path d="M 67.305 456.6375 
L 1183.305 456.6375 
L 1183.305 21.7575 
L 67.305 21.7575 
z
" style="fill: #ffffff"/>
   </g>
   <g id="matplotlib.axis_1">
    <g id="xtick_1">
     <g id="line2d_1">
      <path d="M 85.600082 456.6375 
L 85.600082 21.7575 
" clip-path="url(#p73b69e5867)" style="fill: none; stroke-dasharray: 1.85,0.8; stroke-dashoffset: 0; stroke: #000000; stroke-opacity: 0.5; stroke-width: 0.5"/>
     </g>
     <g id="line2d_2">
      <defs>
       <path id="mc82ab7f4ba" d="M 0 0 
L 0 -6 
" style="stroke: #000000"/>
      </defs>
      <g>
       <use xlink:href="#mc82ab7f4ba" x="85.600082" y="456.6375" style="stroke: #000000"/>
      </g>
     </g>
     <g id="line2d_3">
      <defs>
       <path id="m745e479f5b" d="M 0 0 
L 0 6 
" style="stroke: #000000"/>
      </defs>
      <g>
       <use xlink:href="#m745e479f5b" x="85.600082" y="21.7575" style="stroke: #000000"/>
      </g>
     </g>
     <g id="text_1">
      <!-- 0 -->
      <g transform="translate(80.510082 472.295)scale(0.16 -0.16)">
       <defs>
        <path id="DejaVuSans-30" d="M 2034 4250 
Q 1547 4250 1301 3770 
Q 1056 3291 1056 2328 
Q 1056 1369 1301 889 
Q 1547 409 2034 409 
Q 2525 409 2770 889 
Q 3016 1369 3016 2328 
Q 3016 3291 2770 3770 
Q 2525 4250 2034 4250 
z
M 2034 4750 
Q 2819 4750 3233 4129 
Q 3647 3509 3647 2328 
Q 3647 1150 3233 529 
Q 2819 -91 2034 -91 
Q 1250 -91 836 529 
Q 422 1150 422 2328 
Q 422 3509 836 4129 
Q 1250 4750 2034 4750 
z
" transform="scale(0.015625)"/>
       </defs>
       <use xlink:href="#DejaVuSans-30"/>
      </g>
     </g>
    </g>
    <g id="xtick_2">
     <g id="line2d_4">
      <path d="M 268.550902 456.6375 
L 268.550902 21.7575 
" clip-path="url(#p73b69e5867)" style="fill: none; stroke-dasharray: 1.85,0.8; stroke-dashoffset: 0; stroke: #000000; stroke-opacity: 0.5; stroke-width: 0.5"/>
     </g>
     <g id="line2d_5">
      <g>
       <use xlink:href="#mc82ab7f4ba" x="268.550902" y="456.6375" style="stroke: #000000"/>
      </g>
     </g>
     <g id="line2d_6">
      <g>
       <use xlink:href="#m745e479f5b" x="268.550902" y="21.7575" style="stroke: #000000"/>
      </g>
     </g>
     <g id="text_2">
      <!-- 100 -->
      <g transform="translate(253.280902 472.295)scale(0.16 -0.16)">
       <defs>
        <path id="DejaVuSans-31" d="M 794 531 
L 1825 531 
L 1825 4091 
L 703 3866 
L 703 4441 
L 1819 4666 
L 2450 4666 
L 2450 531 
L 3481 531 
L 3481 0 
L 794 0 
L 794 531 
z
" transform="scale(0.015625)"/>
       </defs>
       <use xlink:href="#DejaVuSans-31"/>
       <use xlink:href="#DejaVuSans-30" x="63.623047"/>
       <use xlink:href="#DejaVuSans-30" x="127.246094"/>
      </g>
     </g>
    </g>
    <g id="xtick_3">
     <g id="line2d_7">
      <path d="M 451.501721 456.6375 
L 451.501721 21.7575 
" clip-path="url(#p73b69e5867)" style="fill: none; stroke-dasharray: 1.85,0.8; stroke-dashoffset: 0; stroke: #000000; stroke-opacity: 0.5; stroke-width: 0.5"/>
     </g>
     <g id="line2d_8">
      <g>
       <use xlink:href="#mc82ab7f4ba" x="451.501721" y="456.6375" style="stroke: #000000"/>
      </g>
     </g>
     <g id="line2d_9">
      <g>
       <use xlink:href="#m745e479f5b" x="451.501721" y="21.7575" style="stroke: #000000"/>
      </g>
     </g>
     <g id="text_3">
      <!-- 200 -->
      <g transform="translate(436.231721 472.295)scale(0.16 -0.16)">
       <defs>
        <path id="DejaVuSans-32" d="M 1228 531 
L 3431 531 
L 3431 0 
L 469 0 
L 469 531 
Q 828 903 1448 1529 
Q 2069 2156 2228 2338 
Q 2531 2678 2651 2914 
Q 2772 3150 2772 3378 
Q 2772 3750 2511 3984 
Q 2250 4219 1831 4219 
Q 1534 4219 1204 4116 
Q 875 4013 500 3803 
L 500 4441 
Q 881 4594 1212 4672 
Q 1544 4750 1819 4750 
Q 2544 4750 2975 4387 
Q 3406 4025 3406 3419 
Q 3406 3131 3298 2873 
Q 3191 2616 2906 2266 
Q 2828 2175 2409 1742 
Q 1991 1309 1228 531 
z
" transform="scale(0.015625)"/>
       </defs>
       <use xlink:href="#DejaVuSans-32"/>
       <use xlink:href="#DejaVuSans-30" x="63.623047"/>
       <use xlink:href="#DejaVuSans-30" x="127.246094"/>
      </g>
     </g>
    </g>
    <g id="xtick_4">
     <g id="line2d_10">
      <path d="M 634.452541 456.6375 
L 634.452541 21.7575 
" clip-path="url(#p73b69e5867)" style="fill: none; stroke-dasharray: 1.85,0.8; stroke-dashoffset: 0; stroke: #000000; stroke-opacity: 0.5; stroke-width: 0.5"/>
     </g>
     <g id="line2d_11">
      <g>
       <use xlink:href="#mc82ab7f4ba" x="634.452541" y="456.6375" style="stroke: #000000"/>
      </g>
     </g>
     <g id="line2d_12">
      <g>
       <use xlink:href="#m745e479f5b" x="634.452541" y="21.7575" style="stroke: #000000"/>
      </g>
     </g>
     <g id="text_4">
      <!-- 300 -->
      <g transform="translate(619.182541 472.295)scale(0.16 -0.16)">
       <defs>
        <path id="DejaVuSans-33" d="M 2597 2516 
Q 3050 2419 3304 2112 
Q 3559 1806 3559 1356 
Q 3559 666 3084 287 
Q 2609 -91 1734 -91 
Q 1441 -91 1130 -33 
Q 819 25 488 141 
L 488 750 
Q 750 597 1062 519 
Q 1375 441 1716 441 
Q 2309 441 2620 675 
Q 2931 909 2931 1356 
Q 2931 1769 2642 2001 
Q 2353 2234 1838 2234 
L 1294 2234 
L 1294 2753 
L 1863 2753 
Q 2328 2753 2575 2939 
Q 2822 3125 2822 3475 
Q 2822 3834 2567 4026 
Q 2313 4219 1838 4219 
Q 1578 4219 1281 4162 
Q 984 4106 628 3988 
L 628 4550 
Q 988 4650 1302 4700 
Q 1616 4750 1894 4750 
Q 2613 4750 3031 4423 
Q 3450 4097 3450 3541 
Q 3450 3153 3228 2886 
Q 3006 2619 2597 2516 
z
" transform="scale(0.015625)"/>
       </defs>
       <use xlink:href="#DejaVuSans-33"/>
       <use xlink:href="#DejaVuSans-30" x="63.623047"/>
       <use xlink:href="#DejaVuSans-30" x="127.246094"/>
      </g>
     </g>
    </g>
    <g id="xtick_5">
     <g id="line2d_13">
      <path d="M 817.403361 456.6375 
L 817.403361 21.7575 
" clip-path="url(#p73b69e5867)" style="fill: none; stroke-dasharray: 1.85,0.8; stroke-dashoffset: 0; stroke: #000000; stroke-opacity: 0.5; stroke-width: 0.5"/>
     </g>
     <g id="line2d_14">
      <g>
       <use xlink:href="#mc82ab7f4ba" x="817.403361" y="456.6375" style="stroke: #000000"/>
      </g>
     </g>
     <g id="line2d_15">
      <g>
       <use xlink:href="#m745e479f5b" x="817.403361" y="21.7575" style="stroke: #000000"/>
      </g>
     </g>
     <g id="text_5">
      <!-- 400 -->
      <g transform="translate(802.133361 472.295)scale(0.16 -0.16)">
       <defs>
        <path id="DejaVuSans-34" d="M 2419 4116 
L 825 1625 
L 2419 1625 
L 2419 4116 
z
M 2253 4666 
L 3047 4666 
L 3047 1625 
L 3713 1625 
L 3713 1100 
L 3047 1100 
L 3047 0 
L 2419 0 
L 2419 1100 
L 313 1100 
L 313 1709 
L 2253 4666 
z
" transform="scale(0.015625)"/>
       </defs>
       <use xlink:href="#DejaVuSans-34"/>
       <use xlink:href="#DejaVuSans-30" x="63.623047"/>
       <use xlink:href="#DejaVuSans-30" x="127.246094"/>
      </g>
     </g>
    </g>
    <g id="xtick_6">
     <g id="line2d_16">
      <path d="M 1000.35418 456.6375 
L 1000.35418 21.7575 
" clip-path="url(#p73b69e5867)" style="fill: none; stroke-dasharray: 1.85,0.8; stroke-dashoffset: 0; stroke: #000000; stroke-opacity: 0.5; stroke-width: 0.5"/>
     </g>
     <g id="line2d_17">
      <g>
       <use xlink:href="#mc82ab7f4ba" x="1000.35418" y="456.6375" style="stroke: #000000"/>
      </g>
     </g>
     <g id="line2d_18">
      <g>
       <use xlink:href="#m745e479f5b" x="1000.35418" y="21.7575" style="stroke: #000000"/>
      </g>
     </g>
     <g id="text_6">
      <!-- 500 -->
      <g transform="translate(985.08418 472.295)scale(0.16 -0.16)">
       <defs>
        <path id="DejaVuSans-35" d="M 691 4666 
L 3169 4666 
L 3169 4134 
L 1269 4134 
L 1269 2991 
Q 1406 3038 1543 3061 
Q 1681 3084 1819 3084 
Q 2600 3084 3056 2656 
Q 3513 2228 3513 1497 
Q 3513 744 3044 326 
Q 2575 -91 1722 -91 
Q 1428 -91 1123 -41 
Q 819 9 494 109 
L 494 744 
Q 775 591 1075 516 
Q 1375 441 1709 441 
Q 2250 441 2565 725 
Q 2881 1009 2881 1497 
Q 2881 1984 2565 2268 
Q 2250 2553 1709 2553 
Q 1456 2553 1204 2497 
Q 953 2441 691 2322 
L 691 4666 
z
" transform="scale(0.015625)"/>
       </defs>
       <use xlink:href="#DejaVuSans-35"/>
       <use xlink:href="#DejaVuSans-30" x="63.623047"/>
       <use xlink:href="#DejaVuSans-30" x="127.246094"/>
      </g>
     </g>
    </g>
    <g id="xtick_7">
     <g id="line2d_19">
      <path d="M 1183.305 456.6375 
L 1183.305 21.7575 
" clip-path="url(#p73b69e5867)" style="fill: none; stroke-dasharray: 1.85,0.8; stroke-dashoffset: 0; stroke: #000000; stroke-opacity: 0.5; stroke-width: 0.5"/>
     </g>
     <g id="line2d_20">
      <g>
       <use xlink:href="#mc82ab7f4ba" x="1183.305" y="456.6375" style="stroke: #000000"/>
      </g>
     </g>
     <g id="line2d_21">
      <g>
       <use xlink:href="#m745e479f5b" x="1183.305" y="21.7575" style="stroke: #000000"/>
      </g>
     </g>
     <g id="text_7">
      <!-- 600 -->
      <g transform="translate(1168.035 472.295)scale(0.16 -0.16)">
       <defs>
        <path id="DejaVuSans-36" d="M 2113 2584 
Q 1688 2584 1439 2293 
Q 1191 2003 1191 1497 
Q 1191 994 1439 701 
Q 1688 409 2113 409 
Q 2538 409 2786 701 
Q 3034 994 3034 1497 
Q 3034 2003 2786 2293 
Q 2538 2584 2113 2584 
z
M 3366 4563 
L 3366 3988 
Q 3128 4100 2886 4159 
Q 2644 4219 2406 4219 
Q 1781 4219 1451 3797 
Q 1122 3375 1075 2522 
Q 1259 2794 1537 2939 
Q 1816 3084 2150 3084 
Q 2853 3084 3261 2657 
Q 3669 2231 3669 1497 
Q 3669 778 3244 343 
Q 2819 -91 2113 -91 
Q 1303 -91 875 529 
Q 447 1150 447 2328 
Q 447 3434 972 4092 
Q 1497 4750 2381 4750 
Q 2619 4750 2861 4703 
Q 3103 4656 3366 4563 
z
" transform="scale(0.015625)"/>
       </defs>
       <use xlink:href="#DejaVuSans-36"/>
       <use xlink:href="#DejaVuSans-30" x="63.623047"/>
       <use xlink:href="#DejaVuSans-30" x="127.246094"/>
      </g>
     </g>
    </g>
    <g id="xtick_8">
     <g id="line2d_22">
      <defs>
       <path id="m8dff3f6cd3" d="M 0 0 
L 0 -3 
" style="stroke: #000000"/>
      </defs>
      <g>
       <use xlink:href="#m8dff3f6cd3" x="122.190246" y="456.6375" style="stroke: #000000"/>
      </g>
     </g>
     <g id="line2d_23">
      <defs>
       <path id="m1ebe1b8414" d="M 0 0 
L 0 3 
" style="stroke: #000000"/>
      </defs>
      <g>
       <use xlink:href="#m1ebe1b8414" x="122.190246" y="21.7575" style="stroke: #000000"/>
      </g>
     </g>
    </g>
    <g id="xtick_9">
     <g id="line2d_24">
      <g>
       <use xlink:href="#m8dff3f6cd3" x="158.78041" y="456.6375" style="stroke: #000000"/>
      </g>
     </g>
     <g id="line2d_25">
      <g>
       <use xlink:href="#m1ebe1b8414" x="158.78041" y="21.7575" style="stroke: #000000"/>
      </g>
     </g>
    </g>
    <g id="xtick_10">
     <g id="line2d_26">
      <g>
       <use xlink:href="#m8dff3f6cd3" x="195.370574" y="456.6375" style="stroke: #000000"/>
      </g>
     </g>
     <g id="line2d_27">
      <g>
       <use xlink:href="#m1ebe1b8414" x="195.370574" y="21.7575" style="stroke: #000000"/>
      </g>
     </g>
    </g>
    <g id="xtick_11">
     <g id="line2d_28">
      <g>
       <use xlink:href="#m8dff3f6cd3" x="231.960738" y="456.6375" style="stroke: #000000"/>
      </g>
     </g>
     <g id="line2d_29">
      <g>
       <use xlink:href="#m1ebe1b8414" x="231.960738" y="21.7575" style="stroke: #000000"/>
      </g>
     </g>
    </g>
    <g id="xtick_12">
     <g id="line2d_30">
      <g>
       <use xlink:href="#m8dff3f6cd3" x="305.141066" y="456.6375" style="stroke: #000000"/>
      </g>
     </g>
     <g id="line2d_31">
      <g>
       <use xlink:href="#m1ebe1b8414" x="305.141066" y="21.7575" style="stroke: #000000"/>
      </g>
     </g>
    </g>
    <g id="xtick_13">
     <g id="line2d_32">
      <g>
       <use xlink:href="#m8dff3f6cd3" x="341.73123" y="456.6375" style="stroke: #000000"/>
      </g>
     </g>
     <g id="line2d_33">
      <g>
       <use xlink:href="#m1ebe1b8414" x="341.73123" y="21.7575" style="stroke: #000000"/>
      </g>
     </g>
    </g>
    <g id="xtick_14">
     <g id="line2d_34">
      <g>
       <use xlink:href="#m8dff3f6cd3" x="378.321393" y="456.6375" style="stroke: #000000"/>
      </g>
     </g>
     <g id="line2d_35">
      <g>
       <use xlink:href="#m1ebe1b8414" x="378.321393" y="21.7575" style="stroke: #000000"/>
      </g>
     </g>
    </g>
    <g id="xtick_15">
     <g id="line2d_36">
      <g>
       <use xlink:href="#m8dff3f6cd3" x="414.911557" y="456.6375" style="stroke: #000000"/>
      </g>
     </g>
     <g id="line2d_37">
      <g>
       <use xlink:href="#m1ebe1b8414" x="414.911557" y="21.7575" style="stroke: #000000"/>
      </g>
     </g>
    </g>
    <g id="xtick_16">
     <g id="line2d_38">
      <g>
       <use xlink:href="#m8dff3f6cd3" x="488.091885" y="456.6375" style="stroke: #000000"/>
      </g>
     </g>
     <g id="line2d_39">
      <g>
       <use xlink:href="#m1ebe1b8414" x="488.091885" y="21.7575" style="stroke: #000000"/>
      </g>
     </g>
    </g>
    <g id="xtick_17">
     <g id="line2d_40">
      <g>
       <use xlink:href="#m8dff3f6cd3" x="524.682049" y="456.6375" style="stroke: #000000"/>
      </g>
     </g>
     <g id="line2d_41">
      <g>
       <use xlink:href="#m1ebe1b8414" x="524.682049" y="21.7575" style="stroke: #000000"/>
      </g>
     </g>
    </g>
    <g id="xtick_18">
     <g id="line2d_42">
      <g>
       <use xlink:href="#m8dff3f6cd3" x="561.272213" y="456.6375" style="stroke: #000000"/>
      </g>
     </g>
     <g id="line2d_43">
      <g>
       <use xlink:href="#m1ebe1b8414" x="561.272213" y="21.7575" style="stroke: #000000"/>
      </g>
     </g>
    </g>
    <g id="xtick_19">
     <g id="line2d_44">
      <g>
       <use xlink:href="#m8dff3f6cd3" x="597.862377" y="456.6375" style="stroke: #000000"/>
      </g>
     </g>
     <g id="line2d_45">
      <g>
       <use xlink:href="#m1ebe1b8414" x="597.862377" y="21.7575" style="stroke: #000000"/>
      </g>
     </g>
    </g>
    <g id="xtick_20">
     <g id="line2d_46">
      <g>
       <use xlink:href="#m8dff3f6cd3" x="671.042705" y="456.6375" style="stroke: #000000"/>
      </g>
     </g>
     <g id="line2d_47">
      <g>
       <use xlink:href="#m1ebe1b8414" x="671.042705" y="21.7575" style="stroke: #000000"/>
      </g>
     </g>
    </g>
    <g id="xtick_21">
     <g id="line2d_48">
      <g>
       <use xlink:href="#m8dff3f6cd3" x="707.632869" y="456.6375" style="stroke: #000000"/>
      </g>
     </g>
     <g id="line2d_49">
      <g>
       <use xlink:href="#m1ebe1b8414" x="707.632869" y="21.7575" style="stroke: #000000"/>
      </g>
     </g>
    </g>
    <g id="xtick_22">
     <g id="line2d_50">
      <g>
       <use xlink:href="#m8dff3f6cd3" x="744.223033" y="456.6375" style="stroke: #000000"/>
      </g>
     </g>
     <g id="line2d_51">
      <g>
       <use xlink:href="#m1ebe1b8414" x="744.223033" y="21.7575" style="stroke: #000000"/>
      </g>
     </g>
    </g>
    <g id="xtick_23">
     <g id="line2d_52">
      <g>
       <use xlink:href="#m8dff3f6cd3" x="780.813197" y="456.6375" style="stroke: #000000"/>
      </g>
     </g>
     <g id="line2d_53">
      <g>
       <use xlink:href="#m1ebe1b8414" x="780.813197" y="21.7575" style="stroke: #000000"/>
      </g>
     </g>
    </g>
    <g id="xtick_24">
     <g id="line2d_54">
      <g>
       <use xlink:href="#m8dff3f6cd3" x="853.993525" y="456.6375" style="stroke: #000000"/>
      </g>
     </g>
     <g id="line2d_55">
      <g>
       <use xlink:href="#m1ebe1b8414" x="853.993525" y="21.7575" style="stroke: #000000"/>
      </g>
     </g>
    </g>
    <g id="xtick_25">
     <g id="line2d_56">
      <g>
       <use xlink:href="#m8dff3f6cd3" x="890.583689" y="456.6375" style="stroke: #000000"/>
      </g>
     </g>
     <g id="line2d_57">
      <g>
       <use xlink:href="#m1ebe1b8414" x="890.583689" y="21.7575" style="stroke: #000000"/>
      </g>
     </g>
    </g>
    <g id="xtick_26">
     <g id="line2d_58">
      <g>
       <use xlink:href="#m8dff3f6cd3" x="927.173852" y="456.6375" style="stroke: #000000"/>
      </g>
     </g>
     <g id="line2d_59">
      <g>
       <use xlink:href="#m1ebe1b8414" x="927.173852" y="21.7575" style="stroke: #000000"/>
      </g>
     </g>
    </g>
    <g id="xtick_27">
     <g id="line2d_60">
      <g>
       <use xlink:href="#m8dff3f6cd3" x="963.764016" y="456.6375" style="stroke: #000000"/>
      </g>
     </g>
     <g id="line2d_61">
      <g>
       <use xlink:href="#m1ebe1b8414" x="963.764016" y="21.7575" style="stroke: #000000"/>
      </g>
     </g>
    </g>
    <g id="xtick_28">
     <g id="line2d_62">
      <g>
       <use xlink:href="#m8dff3f6cd3" x="1036.944344" y="456.6375" style="stroke: #000000"/>
      </g>
     </g>
     <g id="line2d_63">
      <g>
       <use xlink:href="#m1ebe1b8414" x="1036.944344" y="21.7575" style="stroke: #000000"/>
      </g>
     </g>
    </g>
    <g id="xtick_29">
     <g id="line2d_64">
      <g>
       <use xlink:href="#m8dff3f6cd3" x="1073.534508" y="456.6375" style="stroke: #000000"/>
      </g>
     </g>
     <g id="line2d_65">
      <g>
       <use xlink:href="#m1ebe1b8414" x="1073.534508" y="21.7575" style="stroke: #000000"/>
      </g>
     </g>
    </g>
    <g id="xtick_30">
     <g id="line2d_66">
      <g>
       <use xlink:href="#m8dff3f6cd3" x="1110.124672" y="456.6375" style="stroke: #000000"/>
      </g>
     </g>
     <g id="line2d_67">
      <g>
       <use xlink:href="#m1ebe1b8414" x="1110.124672" y="21.7575" style="stroke: #000000"/>
      </g>
     </g>
    </g>
    <g id="xtick_31">
     <g id="line2d_68">
      <g>
       <use xlink:href="#m8dff3f6cd3" x="1146.714836" y="456.6375" style="stroke: #000000"/>
      </g>
     </g>
     <g id="line2d_69">
      <g>
       <use xlink:href="#m1ebe1b8414" x="1146.714836" y="21.7575" style="stroke: #000000"/>
      </g>
     </g>
    </g>
    <g id="text_8">
     <!-- Time [s] -->
     <g transform="translate(592.77875 491.78)scale(0.16 -0.16)">
      <defs>
       <path id="DejaVuSans-54" d="M -19 4666 
L 3928 4666 
L 3928 4134 
L 2272 4134 
L 2272 0 
L 1638 0 
L 1638 4134 
L -19 4134 
L -19 4666 
z
" transform="scale(0.015625)"/>
       <path id="DejaVuSans-69" d="M 603 3500 
L 1178 3500 
L 1178 0 
L 603 0 
L 603 3500 
z
M 603 4863 
L 1178 4863 
L 1178 4134 
L 603 4134 
L 603 4863 
z
" transform="scale(0.015625)"/>
       <path id="DejaVuSans-6d" d="M 3328 2828 
Q 3544 3216 3844 3400 
Q 4144 3584 4550 3584 
Q 5097 3584 5394 3201 
Q 5691 2819 5691 2113 
L 5691 0 
L 5113 0 
L 5113 2094 
Q 5113 2597 4934 2840 
Q 4756 3084 4391 3084 
Q 3944 3084 3684 2787 
Q 3425 2491 3425 1978 
L 3425 0 
L 2847 0 
L 2847 2094 
Q 2847 2600 2669 2842 
Q 2491 3084 2119 3084 
Q 1678 3084 1418 2786 
Q 1159 2488 1159 1978 
L 1159 0 
L 581 0 
L 581 3500 
L 1159 3500 
L 1159 2956 
Q 1356 3278 1631 3431 
Q 1906 3584 2284 3584 
Q 2666 3584 2933 3390 
Q 3200 3197 3328 2828 
z
" transform="scale(0.015625)"/>
       <path id="DejaVuSans-65" d="M 3597 1894 
L 3597 1613 
L 953 1613 
Q 991 1019 1311 708 
Q 1631 397 2203 397 
Q 2534 397 2845 478 
Q 3156 559 3463 722 
L 3463 178 
Q 3153 47 2828 -22 
Q 2503 -91 2169 -91 
Q 1331 -91 842 396 
Q 353 884 353 1716 
Q 353 2575 817 3079 
Q 1281 3584 2069 3584 
Q 2775 3584 3186 3129 
Q 3597 2675 3597 1894 
z
M 3022 2063 
Q 3016 2534 2758 2815 
Q 2500 3097 2075 3097 
Q 1594 3097 1305 2825 
Q 1016 2553 972 2059 
L 3022 2063 
z
" transform="scale(0.015625)"/>
       <path id="DejaVuSans-20" transform="scale(0.015625)"/>
       <path id="DejaVuSans-5b" d="M 550 4863 
L 1875 4863 
L 1875 4416 
L 1125 4416 
L 1125 -397 
L 1875 -397 
L 1875 -844 
L 550 -844 
L 550 4863 
z
" transform="scale(0.015625)"/>
       <path id="DejaVuSans-73" d="M 2834 3397 
L 2834 2853 
Q 2591 2978 2328 3040 
Q 2066 3103 1784 3103 
Q 1356 3103 1142 2972 
Q 928 2841 928 2578 
Q 928 2378 1081 2264 
Q 1234 2150 1697 2047 
L 1894 2003 
Q 2506 1872 2764 1633 
Q 3022 1394 3022 966 
Q 3022 478 2636 193 
Q 2250 -91 1575 -91 
Q 1294 -91 989 -36 
Q 684 19 347 128 
L 347 722 
Q 666 556 975 473 
Q 1284 391 1588 391 
Q 1994 391 2212 530 
Q 2431 669 2431 922 
Q 2431 1156 2273 1281 
Q 2116 1406 1581 1522 
L 1381 1569 
Q 847 1681 609 1914 
Q 372 2147 372 2553 
Q 372 3047 722 3315 
Q 1072 3584 1716 3584 
Q 2034 3584 2315 3537 
Q 2597 3491 2834 3397 
z
" transform="scale(0.015625)"/>
       <path id="DejaVuSans-5d" d="M 1947 4863 
L 1947 -844 
L 622 -844 
L 622 -397 
L 1369 -397 
L 1369 4416 
L 622 4416 
L 622 4863 
L 1947 4863 
z
" transform="scale(0.015625)"/>
      </defs>
      <use xlink:href="#DejaVuSans-54"/>
      <use xlink:href="#DejaVuSans-69" x="57.958984"/>
      <use xlink:href="#DejaVuSans-6d" x="85.742188"/>
      <use xlink:href="#DejaVuSans-65" x="183.154297"/>
      <use xlink:href="#DejaVuSans-20" x="244.677734"/>
      <use xlink:href="#DejaVuSans-5b" x="276.464844"/>
      <use xlink:href="#DejaVuSans-73" x="315.478516"/>
      <use xlink:href="#DejaVuSans-5d" x="367.578125"/>
     </g>
    </g>
   </g>
   <g id="matplotlib.axis_2">
    <g id="ytick_1">
     <g id="line2d_70">
      <path d="M 67.305 456.6375 
L 1183.305 456.6375 
" clip-path="url(#p73b69e5867)" style="fill: none; stroke-dasharray: 1.85,0.8; stroke-dashoffset: 0; stroke: #000000; stroke-opacity: 0.5; stroke-width: 0.5"/>
     </g>
     <g id="line2d_71">
      <defs>
       <path id="mf734d430b2" d="M 0 0 
L 6 0 
" style="stroke: #000000"/>
      </defs>
      <g>
       <use xlink:href="#mf734d430b2" x="67.305" y="456.6375" style="stroke: #000000"/>
      </g>
     </g>
     <g id="line2d_72">
      <defs>
       <path id="m68a193f995" d="M 0 0 
L -6 0 
" style="stroke: #000000"/>
      </defs>
      <g>
       <use xlink:href="#m68a193f995" x="1183.305" y="456.6375" style="stroke: #000000"/>
      </g>
     </g>
     <g id="text_9">
      <!-- 800 -->
      <g transform="translate(33.265 462.71625)scale(0.16 -0.16)">
       <defs>
        <path id="DejaVuSans-38" d="M 2034 2216 
Q 1584 2216 1326 1975 
Q 1069 1734 1069 1313 
Q 1069 891 1326 650 
Q 1584 409 2034 409 
Q 2484 409 2743 651 
Q 3003 894 3003 1313 
Q 3003 1734 2745 1975 
Q 2488 2216 2034 2216 
z
M 1403 2484 
Q 997 2584 770 2862 
Q 544 3141 544 3541 
Q 544 4100 942 4425 
Q 1341 4750 2034 4750 
Q 2731 4750 3128 4425 
Q 3525 4100 3525 3541 
Q 3525 3141 3298 2862 
Q 3072 2584 2669 2484 
Q 3125 2378 3379 2068 
Q 3634 1759 3634 1313 
Q 3634 634 3220 271 
Q 2806 -91 2034 -91 
Q 1263 -91 848 271 
Q 434 634 434 1313 
Q 434 1759 690 2068 
Q 947 2378 1403 2484 
z
M 1172 3481 
Q 1172 3119 1398 2916 
Q 1625 2713 2034 2713 
Q 2441 2713 2670 2916 
Q 2900 3119 2900 3481 
Q 2900 3844 2670 4047 
Q 2441 4250 2034 4250 
Q 1625 4250 1398 4047 
Q 1172 3844 1172 3481 
z
" transform="scale(0.015625)"/>
       </defs>
       <use xlink:href="#DejaVuSans-38"/>
       <use xlink:href="#DejaVuSans-30" x="63.623047"/>
       <use xlink:href="#DejaVuSans-30" x="127.246094"/>
      </g>
     </g>
    </g>
    <g id="ytick_2">
     <g id="line2d_73">
      <path d="M 67.305 369.6615 
L 1183.305 369.6615 
" clip-path="url(#p73b69e5867)" style="fill: none; stroke-dasharray: 1.85,0.8; stroke-dashoffset: 0; stroke: #000000; stroke-opacity: 0.5; stroke-width: 0.5"/>
     </g>
     <g id="line2d_74">
      <g>
       <use xlink:href="#mf734d430b2" x="67.305" y="369.6615" style="stroke: #000000"/>
      </g>
     </g>
     <g id="line2d_75">
      <g>
       <use xlink:href="#m68a193f995" x="1183.305" y="369.6615" style="stroke: #000000"/>
      </g>
     </g>
     <g id="text_10">
      <!-- 1000 -->
      <g transform="translate(23.085 375.74025)scale(0.16 -0.16)">
       <use xlink:href="#DejaVuSans-31"/>
       <use xlink:href="#DejaVuSans-30" x="63.623047"/>
       <use xlink:href="#DejaVuSans-30" x="127.246094"/>
       <use xlink:href="#DejaVuSans-30" x="190.869141"/>
      </g>
     </g>
    </g>
    <g id="ytick_3">
     <g id="line2d_76">
      <path d="M 67.305 282.6855 
L 1183.305 282.6855 
" clip-path="url(#p73b69e5867)" style="fill: none; stroke-dasharray: 1.85,0.8; stroke-dashoffset: 0; stroke: #000000; stroke-opacity: 0.5; stroke-width: 0.5"/>
     </g>
     <g id="line2d_77">
      <g>
       <use xlink:href="#mf734d430b2" x="67.305" y="282.6855" style="stroke: #000000"/>
      </g>
     </g>
     <g id="line2d_78">
      <g>
       <use xlink:href="#m68a193f995" x="1183.305" y="282.6855" style="stroke: #000000"/>
      </g>
     </g>
     <g id="text_11">
      <!-- 1200 -->
      <g transform="translate(23.085 288.76425)scale(0.16 -0.16)">
       <use xlink:href="#DejaVuSans-31"/>
       <use xlink:href="#DejaVuSans-32" x="63.623047"/>
       <use xlink:href="#DejaVuSans-30" x="127.246094"/>
       <use xlink:href="#DejaVuSans-30" x="190.869141"/>
      </g>
     </g>
    </g>
    <g id="ytick_4">
     <g id="line2d_79">
      <path d="M 67.305 195.7095 
L 1183.305 195.7095 
" clip-path="url(#p73b69e5867)" style="fill: none; stroke-dasharray: 1.85,0.8; stroke-dashoffset: 0; stroke: #000000; stroke-opacity: 0.5; stroke-width: 0.5"/>
     </g>
     <g id="line2d_80">
      <g>
       <use xlink:href="#mf734d430b2" x="67.305" y="195.7095" style="stroke: #000000"/>
      </g>
     </g>
     <g id="line2d_81">
      <g>
       <use xlink:href="#m68a193f995" x="1183.305" y="195.7095" style="stroke: #000000"/>
      </g>
     </g>
     <g id="text_12">
      <!-- 1400 -->
      <g transform="translate(23.085 201.78825)scale(0.16 -0.16)">
       <use xlink:href="#DejaVuSans-31"/>
       <use xlink:href="#DejaVuSans-34" x="63.623047"/>
       <use xlink:href="#DejaVuSans-30" x="127.246094"/>
       <use xlink:href="#DejaVuSans-30" x="190.869141"/>
      </g>
     </g>
    </g>
    <g id="ytick_5">
     <g id="line2d_82">
      <path d="M 67.305 108.7335 
L 1183.305 108.7335 
" clip-path="url(#p73b69e5867)" style="fill: none; stroke-dasharray: 1.85,0.8; stroke-dashoffset: 0; stroke: #000000; stroke-opacity: 0.5; stroke-width: 0.5"/>
     </g>
     <g id="line2d_83">
      <g>
       <use xlink:href="#mf734d430b2" x="67.305" y="108.7335" style="stroke: #000000"/>
      </g>
     </g>
     <g id="line2d_84">
      <g>
       <use xlink:href="#m68a193f995" x="1183.305" y="108.7335" style="stroke: #000000"/>
      </g>
     </g>
     <g id="text_13">
      <!-- 1600 -->
      <g transform="translate(23.085 114.81225)scale(0.16 -0.16)">
       <use xlink:href="#DejaVuSans-31"/>
       <use xlink:href="#DejaVuSans-36" x="63.623047"/>
       <use xlink:href="#DejaVuSans-30" x="127.246094"/>
       <use xlink:href="#DejaVuSans-30" x="190.869141"/>
      </g>
     </g>
    </g>
    <g id="ytick_6">
     <g id="line2d_85">
      <path d="M 67.305 21.7575 
L 1183.305 21.7575 
" clip-path="url(#p73b69e5867)" style="fill: none; stroke-dasharray: 1.85,0.8; stroke-dashoffset: 0; stroke: #000000; stroke-opacity: 0.5; stroke-width: 0.5"/>
     </g>
     <g id="line2d_86">
      <g>
       <use xlink:href="#mf734d430b2" x="67.305" y="21.7575" style="stroke: #000000"/>
      </g>
     </g>
     <g id="line2d_87">
      <g>
       <use xlink:href="#m68a193f995" x="1183.305" y="21.7575" style="stroke: #000000"/>
      </g>
     </g>
     <g id="text_14">
      <!-- 1800 -->
      <g transform="translate(23.085 27.83625)scale(0.16 -0.16)">
       <use xlink:href="#DejaVuSans-31"/>
       <use xlink:href="#DejaVuSans-38" x="63.623047"/>
       <use xlink:href="#DejaVuSans-30" x="127.246094"/>
       <use xlink:href="#DejaVuSans-30" x="190.869141"/>
      </g>
     </g>
    </g>
    <g id="ytick_7">
     <g id="line2d_88">
      <defs>
       <path id="m01deb284d7" d="M 0 0 
L 3 0 
" style="stroke: #000000"/>
      </defs>
      <g>
       <use xlink:href="#m01deb284d7" x="67.305" y="434.8935" style="stroke: #000000"/>
      </g>
     </g>
     <g id="line2d_89">
      <defs>
       <path id="m5c99487626" d="M 0 0 
L -3 0 
" style="stroke: #000000"/>
      </defs>
      <g>
       <use xlink:href="#m5c99487626" x="1183.305" y="434.8935" style="stroke: #000000"/>
      </g>
     </g>
    </g>
    <g id="ytick_8">
     <g id="line2d_90">
      <g>
       <use xlink:href="#m01deb284d7" x="67.305" y="413.1495" style="stroke: #000000"/>
      </g>
     </g>
     <g id="line2d_91">
      <g>
       <use xlink:href="#m5c99487626" x="1183.305" y="413.1495" style="stroke: #000000"/>
      </g>
     </g>
    </g>
    <g id="ytick_9">
     <g id="line2d_92">
      <g>
       <use xlink:href="#m01deb284d7" x="67.305" y="391.4055" style="stroke: #000000"/>
      </g>
     </g>
     <g id="line2d_93">
      <g>
       <use xlink:href="#m5c99487626" x="1183.305" y="391.4055" style="stroke: #000000"/>
      </g>
     </g>
    </g>
    <g id="ytick_10">
     <g id="line2d_94">
      <g>
       <use xlink:href="#m01deb284d7" x="67.305" y="347.9175" style="stroke: #000000"/>
      </g>
     </g>
     <g id="line2d_95">
      <g>
       <use xlink:href="#m5c99487626" x="1183.305" y="347.9175" style="stroke: #000000"/>
      </g>
     </g>
    </g>
    <g id="ytick_11">
     <g id="line2d_96">
      <g>
       <use xlink:href="#m01deb284d7" x="67.305" y="326.1735" style="stroke: #000000"/>
      </g>
     </g>
     <g id="line2d_97">
      <g>
       <use xlink:href="#m5c99487626" x="1183.305" y="326.1735" style="stroke: #000000"/>
      </g>
     </g>
    </g>
    <g id="ytick_12">
     <g id="line2d_98">
      <g>
       <use xlink:href="#m01deb284d7" x="67.305" y="304.4295" style="stroke: #000000"/>
      </g>
     </g>
     <g id="line2d_99">
      <g>
       <use xlink:href="#m5c99487626" x="1183.305" y="304.4295" style="stroke: #000000"/>
      </g>
     </g>
    </g>
    <g id="ytick_13">
     <g id="line2d_100">
      <g>
       <use xlink:href="#m01deb284d7" x="67.305" y="260.9415" style="stroke: #000000"/>
      </g>
     </g>
     <g id="line2d_101">
      <g>
       <use xlink:href="#m5c99487626" x="1183.305" y="260.9415" style="stroke: #000000"/>
      </g>
     </g>
    </g>
    <g id="ytick_14">
     <g id="line2d_102">
      <g>
       <use xlink:href="#m01deb284d7" x="67.305" y="239.1975" style="stroke: #000000"/>
      </g>
     </g>
     <g id="line2d_103">
      <g>
       <use xlink:href="#m5c99487626" x="1183.305" y="239.1975" style="stroke: #000000"/>
      </g>
     </g>
    </g>
    <g id="ytick_15">
     <g id="line2d_104">
      <g>
       <use xlink:href="#m01deb284d7" x="67.305" y="217.4535" style="stroke: #000000"/>
      </g>
     </g>
     <g id="line2d_105">
      <g>
       <use xlink:href="#m5c99487626" x="1183.305" y="217.4535" style="stroke: #000000"/>
      </g>
     </g>
    </g>
    <g id="ytick_16">
     <g id="line2d_106">
      <g>
       <use xlink:href="#m01deb284d7" x="67.305" y="173.9655" style="stroke: #000000"/>
      </g>
     </g>
     <g id="line2d_107">
      <g>
       <use xlink:href="#m5c99487626" x="1183.305" y="173.9655" style="stroke: #000000"/>
      </g>
     </g>
    </g>
    <g id="ytick_17">
     <g id="line2d_108">
      <g>
       <use xlink:href="#m01deb284d7" x="67.305" y="152.2215" style="stroke: #000000"/>
      </g>
     </g>
     <g id="line2d_109">
      <g>
       <use xlink:href="#m5c99487626" x="1183.305" y="152.2215" style="stroke: #000000"/>
      </g>
     </g>
    </g>
    <g id="ytick_18">
     <g id="line2d_110">
      <g>
       <use xlink:href="#m01deb284d7" x="67.305" y="130.4775" style="stroke: #000000"/>
      </g>
     </g>
     <g id="line2d_111">
      <g>
       <use xlink:href="#m5c99487626" x="1183.305" y="130.4775" style="stroke: #000000"/>
      </g>
     </g>
    </g>
    <g id="ytick_19">
     <g id="line2d_112">
      <g>
       <use xlink:href="#m01deb284d7" x="67.305" y="86.9895" style="stroke: #000000"/>
      </g>
     </g>
     <g id="line2d_113">
      <g>
       <use xlink:href="#m5c99487626" x="1183.305" y="86.9895" style="stroke: #000000"/>
      </g>
     </g>
    </g>
    <g id="ytick_20">
     <g id="line2d_114">
      <g>
       <use xlink:href="#m01deb284d7" x="67.305" y="65.2455" style="stroke: #000000"/>
      </g>
     </g>
     <g id="line2d_115">
      <g>
       <use xlink:href="#m5c99487626" x="1183.305" y="65.2455" style="stroke: #000000"/>
      </g>
     </g>
    </g>
    <g id="ytick_21">
     <g id="line2d_116">
      <g>
       <use xlink:href="#m01deb284d7" x="67.305" y="43.5015" style="stroke: #000000"/>
      </g>
     </g>
     <g id="line2d_117">
      <g>
       <use xlink:href="#m5c99487626" x="1183.305" y="43.5015" style="stroke: #000000"/>
      </g>
     </g>
    </g>
    <g id="text_15">
     <!-- temperature [℃] -->
     <g transform="translate(15.7575 307.24875)rotate(-90)scale(0.16 -0.16)">
      <defs>
       <path id="DejaVuSans-74" d="M 1172 4494 
L 1172 3500 
L 2356 3500 
L 2356 3053 
L 1172 3053 
L 1172 1153 
Q 1172 725 1289 603 
Q 1406 481 1766 481 
L 2356 481 
L 2356 0 
L 1766 0 
Q 1100 0 847 248 
Q 594 497 594 1153 
L 594 3053 
L 172 3053 
L 172 3500 
L 594 3500 
L 594 4494 
L 1172 4494 
z
" transform="scale(0.015625)"/>
       <path id="DejaVuSans-70" d="M 1159 525 
L 1159 -1331 
L 581 -1331 
L 581 3500 
L 1159 3500 
L 1159 2969 
Q 1341 3281 1617 3432 
Q 1894 3584 2278 3584 
Q 2916 3584 3314 3078 
Q 3713 2572 3713 1747 
Q 3713 922 3314 415 
Q 2916 -91 2278 -91 
Q 1894 -91 1617 61 
Q 1341 213 1159 525 
z
M 3116 1747 
Q 3116 2381 2855 2742 
Q 2594 3103 2138 3103 
Q 1681 3103 1420 2742 
Q 1159 2381 1159 1747 
Q 1159 1113 1420 752 
Q 1681 391 2138 391 
Q 2594 391 2855 752 
Q 3116 1113 3116 1747 
z
" transform="scale(0.015625)"/>
       <path id="DejaVuSans-72" d="M 2631 2963 
Q 2534 3019 2420 3045 
Q 2306 3072 2169 3072 
Q 1681 3072 1420 2755 
Q 1159 2438 1159 1844 
L 1159 0 
L 581 0 
L 581 3500 
L 1159 3500 
L 1159 2956 
Q 1341 3275 1631 3429 
Q 1922 3584 2338 3584 
Q 2397 3584 2469 3576 
Q 2541 3569 2628 3553 
L 2631 2963 
z
" transform="scale(0.015625)"/>
       <path id="DejaVuSans-61" d="M 2194 1759 
Q 1497 1759 1228 1600 
Q 959 1441 959 1056 
Q 959 750 1161 570 
Q 1363 391 1709 391 
Q 2188 391 2477 730 
Q 2766 1069 2766 1631 
L 2766 1759 
L 2194 1759 
z
M 3341 1997 
L 3341 0 
L 2766 0 
L 2766 531 
Q 2569 213 2275 61 
Q 1981 -91 1556 -91 
Q 1019 -91 701 211 
Q 384 513 384 1019 
Q 384 1609 779 1909 
Q 1175 2209 1959 2209 
L 2766 2209 
L 2766 2266 
Q 2766 2663 2505 2880 
Q 2244 3097 1772 3097 
Q 1472 3097 1187 3025 
Q 903 2953 641 2809 
L 641 3341 
Q 956 3463 1253 3523 
Q 1550 3584 1831 3584 
Q 2591 3584 2966 3190 
Q 3341 2797 3341 1997 
z
" transform="scale(0.015625)"/>
       <path id="DejaVuSans-75" d="M 544 1381 
L 544 3500 
L 1119 3500 
L 1119 1403 
Q 1119 906 1312 657 
Q 1506 409 1894 409 
Q 2359 409 2629 706 
Q 2900 1003 2900 1516 
L 2900 3500 
L 3475 3500 
L 3475 0 
L 2900 0 
L 2900 538 
Q 2691 219 2414 64 
Q 2138 -91 1772 -91 
Q 1169 -91 856 284 
Q 544 659 544 1381 
z
M 1991 3584 
L 1991 3584 
z
" transform="scale(0.015625)"/>
       <path id="DejaVuSans-2103" d="M 1600 4347 
Q 1350 4347 1178 4173 
Q 1006 4000 1006 3750 
Q 1006 3503 1178 3333 
Q 1350 3163 1600 3163 
Q 1850 3163 2022 3333 
Q 2194 3503 2194 3750 
Q 2194 3997 2020 4172 
Q 1847 4347 1600 4347 
z
M 1600 4750 
Q 1800 4750 1984 4673 
Q 2169 4597 2303 4453 
Q 2447 4313 2519 4134 
Q 2591 3956 2591 3750 
Q 2591 3338 2302 3052 
Q 2013 2766 1594 2766 
Q 1172 2766 890 3047 
Q 609 3328 609 3750 
Q 609 4169 896 4459 
Q 1184 4750 1600 4750 
z
M 6741 4306 
L 6741 3641 
Q 6422 3938 6061 4084 
Q 5700 4231 5294 4231 
Q 4494 4231 4069 3742 
Q 3644 3253 3644 2328 
Q 3644 1406 4069 917 
Q 4494 428 5294 428 
Q 5700 428 6061 575 
Q 6422 722 6741 1019 
L 6741 359 
Q 6409 134 6039 21 
Q 5669 -91 5256 -91 
Q 4197 -91 3587 557 
Q 2978 1206 2978 2328 
Q 2978 3453 3587 4101 
Q 4197 4750 5256 4750 
Q 5675 4750 6045 4639 
Q 6416 4528 6741 4306 
z
" transform="scale(0.015625)"/>
      </defs>
      <use xlink:href="#DejaVuSans-74"/>
      <use xlink:href="#DejaVuSans-65" x="39.208984"/>
      <use xlink:href="#DejaVuSans-6d" x="100.732422"/>
      <use xlink:href="#DejaVuSans-70" x="198.144531"/>
      <use xlink:href="#DejaVuSans-65" x="261.621094"/>
      <use xlink:href="#DejaVuSans-72" x="323.144531"/>
      <use xlink:href="#DejaVuSans-61" x="364.257812"/>
      <use xlink:href="#DejaVuSans-74" x="425.537109"/>
      <use xlink:href="#DejaVuSans-75" x="464.746094"/>
      <use xlink:href="#DejaVuSans-72" x="528.125"/>
      <use xlink:href="#DejaVuSans-65" x="566.988281"/>
      <use xlink:href="#DejaVuSans-20" x="628.511719"/>
      <use xlink:href="#DejaVuSans-5b" x="660.298828"/>
      <use xlink:href="#DejaVuSans-2103" x="699.3125"/>
      <use xlink:href="#DejaVuSans-5d" x="811.617188"/>
     </g>
    </g>
   </g>
   <g id="line2d_118">
    <path d="M 87.42959 413.1495 
L 89.259098 411.40998 
L 91.088607 408.8007 
L 94.747623 405.32166 
L 96.577131 403.14726 
L 98.406639 401.40774 
L 100.236148 399.23334 
L 103.895164 396.62406 
L 105.724672 394.88454 
L 107.55418 392.71014 
L 109.383689 390.97062 
L 111.213197 390.10086 
L 114.872213 384.8823 
L 116.701721 382.7079 
L 118.53123 380.96838 
L 120.360738 378.79398 
L 125.849262 368.35686 
L 127.67877 365.3127 
L 129.508279 361.39878 
L 131.337787 355.31046 
L 133.167295 349.65702 
L 134.996803 345.7431 
L 136.826311 342.26406 
L 138.65582 339.2199 
L 140.485328 336.61062 
L 144.144344 334.00134 
L 145.973852 332.26182 
L 147.803361 334.8711 
L 149.632869 328.78278 
L 155.121393 323.56422 
L 156.950902 322.69446 
L 158.78041 321.38982 
L 160.609918 320.52006 
L 162.439426 320.08518 
L 164.268934 319.21542 
L 166.098443 317.4759 
L 167.927951 314.43174 
L 171.586967 309.21318 
L 175.245984 304.86438 
L 177.075492 303.12486 
L 178.905 301.82022 
L 180.734508 300.0807 
L 182.564016 298.77606 
L 184.393525 297.03654 
L 186.223033 295.7319 
L 188.052541 293.99238 
L 189.882049 290.94822 
L 191.711557 287.46918 
L 193.541066 284.8599 
L 197.200082 280.5111 
L 199.02959 277.03206 
L 200.859098 273.11814 
L 202.688607 270.94374 
L 204.518115 269.20422 
L 206.347623 267.02982 
L 208.177131 265.2903 
L 210.006639 263.98566 
L 213.665656 259.63686 
L 215.495164 257.89734 
L 219.15418 253.54854 
L 220.983689 250.93926 
L 222.813197 249.19974 
L 228.301721 242.67654 
L 230.13123 240.93702 
L 231.960738 238.76262 
L 233.790246 236.15334 
L 235.619754 233.10918 
L 237.449262 230.93478 
L 241.108279 224.84646 
L 242.937787 222.23718 
L 246.596803 216.14886 
L 250.25582 209.19078 
L 252.085328 204.84198 
L 253.914836 200.0583 
L 255.744344 196.14438 
L 259.403361 191.79558 
L 261.232869 190.05606 
L 263.062377 188.75142 
L 264.891885 187.0119 
L 266.721393 184.40262 
L 268.550902 181.35846 
L 270.38041 179.18406 
L 272.209918 177.87942 
L 274.039426 175.27014 
L 275.868934 172.22598 
L 277.698443 168.31206 
L 279.527951 165.2679 
L 285.016475 158.7447 
L 290.505 153.52614 
L 292.334508 152.2215 
L 473.45582 152.2215 
L 493.58041 161.78886 
L 495.409918 162.22374 
L 497.239426 163.52838 
L 537.488607 182.6631 
L 539.318115 183.09798 
L 541.147623 183.96774 
L 542.977131 185.27238 
L 548.465656 187.88166 
L 550.295164 188.31654 
L 552.124672 189.62118 
L 557.613197 192.23046 
L 559.442705 192.66534 
L 561.272213 192.66534 
L 564.93123 194.40486 
L 566.760738 194.83974 
L 568.590246 196.14438 
L 577.737787 200.49318 
L 579.567295 200.92806 
L 583.226311 202.66758 
L 585.05582 203.10246 
L 586.885328 203.97222 
L 588.714836 204.4071 
L 590.544344 205.27686 
L 592.373852 205.71174 
L 596.032869 207.45126 
L 597.862377 207.88614 
L 601.521393 209.62566 
L 603.350902 210.06054 
L 607.009918 211.80006 
L 608.839426 212.23494 
L 610.668934 212.23494 
L 614.327951 213.97446 
L 617.986967 216.58374 
L 619.816475 217.4535 
L 621.645984 217.88838 
L 630.793525 222.23718 
L 632.623033 222.67206 
L 638.111557 225.28134 
L 639.941066 226.58598 
L 641.770574 227.45574 
L 643.600082 227.89062 
L 645.42959 229.19526 
L 647.259098 230.06502 
L 649.088607 230.4999 
L 650.918115 231.80454 
L 656.406639 234.41382 
L 658.236148 234.8487 
L 660.065656 235.71846 
L 661.895164 236.15334 
L 663.724672 237.0231 
L 667.383689 240.50214 
L 669.213197 241.80678 
L 671.042705 242.67654 
L 674.701721 243.5463 
L 676.53123 243.5463 
L 678.360738 243.98118 
L 683.849262 247.8951 
L 689.337787 249.19974 
L 691.167295 250.0695 
L 692.996803 251.37414 
L 698.485328 253.98342 
L 700.314836 255.28806 
L 709.462377 259.63686 
L 713.121393 262.24614 
L 718.609918 264.85542 
L 720.439426 264.85542 
L 722.268934 265.72518 
L 727.757459 267.02982 
L 729.586967 267.89958 
L 731.416475 269.20422 
L 735.075492 270.94374 
L 736.905 271.37862 
L 738.734508 272.68326 
L 740.564016 274.42278 
L 742.393525 275.72742 
L 744.223033 276.59718 
L 747.882049 277.46694 
L 749.711557 278.3367 
L 753.370574 280.94598 
L 757.02959 281.81574 
L 758.859098 282.6855 
L 760.688607 283.12038 
L 764.347623 285.72966 
L 766.177131 286.59942 
L 768.006639 287.0343 
L 769.836148 287.90406 
L 771.665656 287.90406 
L 773.495164 288.77382 
L 777.15418 291.3831 
L 780.813197 293.12262 
L 782.642705 293.5575 
L 784.472213 294.42726 
L 786.301721 295.7319 
L 797.27877 300.95046 
L 799.108279 301.38534 
L 800.937787 302.2551 
L 802.767295 303.55974 
L 806.426311 305.29926 
L 808.25582 305.73414 
L 810.085328 307.03878 
L 811.914836 308.7783 
L 813.744344 309.64806 
L 815.573852 310.08294 
L 817.403361 310.9527 
L 821.062377 313.56198 
L 822.891885 314.43174 
L 824.721393 316.60614 
L 826.550902 317.4759 
L 828.38041 317.4759 
L 830.209918 317.91078 
L 832.039426 318.78054 
L 837.527951 320.08518 
L 843.016475 322.69446 
L 844.845984 323.12934 
L 846.675492 322.69446 
L 848.505 323.12934 
L 850.334508 323.12934 
L 855.823033 324.43398 
L 857.652541 325.30374 
L 859.482049 326.60838 
L 861.311557 327.47814 
L 863.141066 328.78278 
L 864.970574 333.56646 
L 866.800082 330.5223 
L 868.62959 331.82694 
L 872.288607 335.30598 
L 875.947623 337.0455 
L 883.265656 338.78502 
L 888.75418 341.3943 
L 892.413197 344.00358 
L 894.242705 344.87334 
L 897.901721 347.48262 
L 899.73123 349.22214 
L 901.560738 350.52678 
L 905.219754 352.2663 
L 912.537787 354.00582 
L 914.367295 355.31046 
L 916.196803 356.18022 
L 918.026311 357.48486 
L 919.85582 357.91974 
L 923.514836 360.52902 
L 925.344344 361.39878 
L 932.662377 366.61734 
L 938.150902 367.92198 
L 939.98041 367.92198 
L 943.639426 368.79174 
L 945.468934 369.6615 
L 952.786967 374.88006 
L 956.445984 376.61958 
L 958.275492 377.92422 
L 960.105 379.66374 
L 961.934508 380.5335 
L 967.423033 381.83814 
L 969.252541 381.83814 
L 972.911557 383.57766 
L 974.741066 384.01254 
L 976.570574 384.01254 
L 978.400082 385.31718 
L 980.22959 386.18694 
L 983.888607 388.79622 
L 987.547623 392.27526 
L 989.377131 393.5799 
L 991.206639 394.44966 
L 993.036148 395.7543 
L 994.865656 396.62406 
L 996.695164 397.05894 
L 1000.35418 397.05894 
L 1004.013197 397.9287 
L 1007.672213 399.66822 
L 1009.501721 400.1031 
L 1011.33123 401.40774 
L 1013.160738 402.2775 
L 1014.990246 403.58214 
L 1016.819754 404.4519 
L 1018.649262 405.75654 
L 1020.47877 406.6263 
L 1024.137787 409.23558 
L 1025.967295 410.10534 
L 1033.285328 415.3239 
L 1035.114836 415.75878 
L 1038.773852 414.88902 
L 1040.603361 415.3239 
L 1053.409918 421.41222 
L 1058.898443 425.32614 
L 1060.727951 426.1959 
L 1062.557459 427.50054 
L 1068.045984 430.10982 
L 1069.875492 431.41446 
L 1075.364016 432.7191 
L 1077.193525 433.58886 
L 1079.023033 434.02374 
L 1084.511557 436.63302 
L 1090.000082 440.54694 
L 1091.82959 440.98182 
L 1095.488607 442.72134 
L 1097.318115 444.46086 
L 1102.806639 445.7655 
L 1106.465656 449.24454 
L 1111.95418 450.54918 
L 1113.783689 451.41894 
L 1113.783689 451.41894 
" clip-path="url(#p73b69e5867)" style="fill: none; stroke: #0c5da5; stroke-width: 2; stroke-linecap: square"/>
   </g>
   <g id="line2d_119">
    <path d="M 87.42959 307.90854 
L 89.259098 306.16902 
L 91.088607 306.16902 
L 92.918115 307.03878 
L 94.747623 307.03878 
L 96.577131 306.16902 
L 100.236148 306.16902 
L 102.065656 305.29926 
L 103.895164 306.16902 
L 105.724672 306.16902 
L 107.55418 303.12486 
L 109.383689 253.54854 
L 111.213197 187.88166 
L 113.042705 205.71174 
L 114.872213 274.85766 
L 116.701721 306.16902 
L 118.53123 305.29926 
L 122.190246 307.03878 
L 124.019754 307.03878 
L 125.849262 293.99238 
L 127.67877 226.58598 
L 129.508279 210.49542 
L 131.337787 275.29254 
L 133.167295 304.86438 
L 134.996803 305.29926 
L 138.65582 307.03878 
L 140.485328 295.7319 
L 142.314836 228.76038 
L 144.144344 215.71398 
L 145.973852 281.38086 
L 147.803361 306.16902 
L 149.632869 305.29926 
L 151.462377 305.29926 
L 153.291885 306.16902 
L 155.121393 290.51334 
L 156.950902 223.54182 
L 158.78041 220.49766 
L 160.609918 287.0343 
L 162.439426 305.29926 
L 164.268934 306.16902 
L 166.098443 305.29926 
L 167.927951 306.16902 
L 169.757459 290.94822 
L 171.586967 225.28134 
L 173.416475 222.67206 
L 175.245984 289.2087 
L 177.075492 306.16902 
L 178.905 307.03878 
L 180.734508 306.16902 
L 182.564016 307.03878 
L 184.393525 303.99462 
L 186.223033 260.07174 
L 188.052541 210.06054 
L 189.882049 253.11366 
L 191.711557 303.99462 
L 193.541066 305.29926 
L 195.370574 305.29926 
L 197.200082 307.03878 
L 199.02959 307.03878 
L 200.859098 268.76934 
L 202.688607 209.62566 
L 204.518115 240.06726 
L 206.347623 298.34118 
L 208.177131 306.16902 
L 210.006639 307.03878 
L 213.665656 307.03878 
L 215.495164 299.64582 
L 217.324672 236.58822 
L 219.15418 219.19302 
L 220.983689 281.38086 
L 222.813197 305.29926 
L 224.642705 306.16902 
L 226.472213 305.29926 
L 228.301721 305.29926 
L 230.13123 293.12262 
L 231.960738 228.76038 
L 233.790246 227.45574 
L 235.619754 291.81798 
L 237.449262 306.16902 
L 239.27877 307.03878 
L 242.937787 307.03878 
L 244.767295 305.29926 
L 246.596803 261.81126 
L 248.426311 209.62566 
L 250.25582 250.0695 
L 252.085328 303.55974 
L 253.914836 307.03878 
L 259.403361 307.03878 
L 261.232869 305.29926 
L 263.062377 260.07174 
L 264.891885 202.2327 
L 266.721393 240.93702 
L 268.550902 299.64582 
L 270.38041 307.03878 
L 274.039426 305.29926 
L 275.868934 307.03878 
L 277.698443 306.16902 
L 279.527951 295.7319 
L 281.357459 232.6743 
L 283.186967 213.97446 
L 285.016475 278.77158 
L 286.845984 307.03878 
L 288.675492 306.16902 
L 290.505 307.03878 
L 292.334508 306.16902 
L 294.164016 306.16902 
L 295.993525 305.29926 
L 297.823033 271.8135 
L 299.652541 203.97222 
L 301.482049 213.53958 
L 303.311557 280.5111 
L 305.141066 306.16902 
L 306.970574 305.29926 
L 308.800082 306.16902 
L 310.62959 305.29926 
L 312.459098 305.29926 
L 316.118115 307.03878 
L 321.606639 307.03878 
L 323.436148 306.16902 
L 325.265656 304.86438 
L 327.095164 287.0343 
L 328.924672 263.55078 
L 330.75418 253.11366 
L 332.583689 249.19974 
L 334.413197 247.8951 
L 336.242705 255.28806 
L 338.072213 275.29254 
L 339.901721 298.77606 
L 341.73123 306.16902 
L 343.560738 307.03878 
L 345.390246 306.16902 
L 347.219754 306.16902 
L 349.049262 305.29926 
L 350.87877 306.16902 
L 352.708279 305.29926 
L 354.537787 305.29926 
L 356.367295 257.46246 
L 358.196803 217.4535 
L 360.026311 264.42054 
L 361.85582 306.16902 
L 363.685328 307.03878 
L 365.514836 307.03878 
L 367.344344 306.16902 
L 369.173852 301.38534 
L 371.003361 244.85094 
L 372.832869 214.40934 
L 374.662377 269.6391 
L 376.491885 305.29926 
L 378.321393 306.16902 
L 380.150902 305.29926 
L 381.98041 306.16902 
L 383.809918 304.86438 
L 385.639426 254.4183 
L 387.468934 216.58374 
L 389.298443 268.76934 
L 391.127951 307.03878 
L 392.957459 307.03878 
L 394.786967 306.16902 
L 396.616475 307.03878 
L 398.445984 306.16902 
L 400.275492 282.25062 
L 402.105 217.4535 
L 403.934508 226.1511 
L 405.764016 292.25286 
L 407.593525 306.16902 
L 409.423033 307.03878 
L 418.570574 307.03878 
L 420.400082 302.2551 
L 422.22959 273.11814 
L 424.059098 227.02086 
L 425.888607 186.14214 
L 427.718115 163.0935 
L 429.547623 160.9191 
L 431.377131 161.78886 
L 433.206639 160.48422 
L 435.036148 161.78886 
L 436.865656 161.78886 
L 438.695164 160.9191 
L 440.524672 166.57254 
L 442.35418 183.09798 
L 444.183689 212.23494 
L 447.842705 288.77382 
L 449.672213 306.16902 
L 451.501721 307.03878 
L 455.160738 307.03878 
L 458.819754 305.29926 
L 460.649262 305.29926 
L 462.47877 304.86438 
L 464.308279 305.29926 
L 467.967295 307.03878 
L 473.45582 307.03878 
L 477.114836 305.29926 
L 478.944344 305.29926 
L 480.773852 304.86438 
L 482.603361 305.29926 
L 484.432869 306.16902 
L 486.262377 305.29926 
L 488.091885 306.16902 
L 489.921393 306.16902 
L 491.750902 307.03878 
L 493.58041 307.03878 
L 495.409918 306.16902 
L 499.068934 306.16902 
L 500.898443 305.29926 
L 502.727951 306.16902 
L 504.557459 305.29926 
L 506.386967 306.16902 
L 508.216475 306.16902 
L 510.045984 307.03878 
L 511.875492 306.16902 
L 513.705 307.03878 
L 515.534508 306.16902 
L 517.364016 306.16902 
L 519.193525 305.29926 
L 521.023033 306.16902 
L 522.852541 304.86438 
L 524.682049 306.16902 
L 526.511557 306.16902 
L 528.341066 307.03878 
L 530.170574 304.86438 
L 532.000082 305.29926 
L 535.659098 307.03878 
L 537.488607 305.29926 
L 539.318115 306.16902 
L 541.147623 304.86438 
L 542.977131 305.29926 
L 546.636148 307.03878 
L 548.465656 306.6039 
L 550.295164 294.42726 
L 552.124672 261.37638 
L 553.95418 217.01862 
L 555.783689 177.00966 
L 557.613197 174.83526 
L 559.442705 222.67206 
L 561.272213 280.5111 
L 563.101721 305.73414 
L 564.93123 306.16902 
L 566.760738 307.03878 
L 568.590246 306.16902 
L 570.419754 306.16902 
L 572.249262 305.29926 
L 574.07877 307.03878 
L 575.908279 306.16902 
L 579.567295 306.16902 
L 581.396803 307.03878 
L 583.226311 304.86438 
L 585.05582 306.16902 
L 586.885328 305.29926 
L 588.714836 306.16902 
L 590.544344 305.29926 
L 592.373852 306.16902 
L 596.032869 306.16902 
L 597.862377 298.34118 
L 599.691885 268.33446 
L 601.521393 228.76038 
L 603.350902 195.27462 
L 605.18041 170.48646 
L 607.009918 162.22374 
L 608.839426 177.44454 
L 610.668934 214.40934 
L 612.498443 256.5927 
L 614.327951 290.94822 
L 616.157459 305.73414 
L 617.986967 306.16902 
L 619.816475 307.03878 
L 621.645984 306.16902 
L 623.475492 306.16902 
L 625.305 305.29926 
L 627.134508 306.16902 
L 628.964016 304.86438 
L 630.793525 306.16902 
L 632.623033 306.16902 
L 634.452541 307.03878 
L 636.282049 307.03878 
L 638.111557 307.90854 
L 639.941066 304.4295 
L 641.770574 262.24614 
L 643.600082 194.83974 
L 645.42959 206.14662 
L 647.259098 274.85766 
L 649.088607 307.03878 
L 650.918115 307.03878 
L 652.747623 306.16902 
L 654.577131 307.03878 
L 656.406639 306.16902 
L 658.236148 304.86438 
L 660.065656 305.29926 
L 661.895164 306.16902 
L 663.724672 305.29926 
L 665.55418 305.73414 
L 667.383689 285.29478 
L 669.213197 230.93478 
L 671.042705 180.4887 
L 672.872213 193.96998 
L 674.701721 253.98342 
L 676.53123 296.16678 
L 678.360738 306.16902 
L 680.190246 307.03878 
L 682.019754 306.16902 
L 683.849262 306.16902 
L 685.67877 307.03878 
L 689.337787 305.29926 
L 691.167295 306.16902 
L 692.996803 305.29926 
L 694.826311 305.29926 
L 696.65582 306.16902 
L 698.485328 305.29926 
L 700.314836 306.16902 
L 702.144344 306.16902 
L 703.973852 304.86438 
L 705.803361 296.60166 
L 707.632869 278.3367 
L 709.462377 258.7671 
L 711.291885 237.0231 
L 713.121393 221.8023 
L 716.78041 199.62342 
L 718.609918 192.66534 
L 722.268934 168.74694 
L 724.098443 162.65862 
L 725.927951 161.78886 
L 727.757459 162.22374 
L 729.586967 160.9191 
L 731.416475 160.9191 
L 733.245984 163.96326 
L 735.075492 173.53062 
L 736.905 190.49094 
L 738.734508 198.75366 
L 740.564016 203.53734 
L 742.393525 213.53958 
L 744.223033 230.06502 
L 746.052541 251.37414 
L 749.711557 290.51334 
L 751.541066 304.86438 
L 753.370574 305.29926 
L 757.02959 307.03878 
L 760.688607 305.29926 
L 762.518115 306.16902 
L 764.347623 305.29926 
L 766.177131 305.29926 
L 769.836148 307.03878 
L 771.665656 306.16902 
L 773.495164 279.20646 
L 775.324672 212.23494 
L 777.15418 175.27014 
L 778.983689 218.32326 
L 780.813197 280.5111 
L 782.642705 305.29926 
L 784.472213 306.16902 
L 786.301721 305.29926 
L 788.13123 305.29926 
L 789.960738 306.16902 
L 791.790246 306.16902 
L 793.619754 274.42278 
L 795.449262 212.66982 
L 797.27877 238.76262 
L 799.108279 300.0807 
L 800.937787 307.03878 
L 802.767295 307.03878 
L 806.426311 305.29926 
L 808.25582 270.94374 
L 810.085328 204.84198 
L 811.914836 227.45574 
L 813.744344 294.42726 
L 815.573852 306.16902 
L 817.403361 306.16902 
L 819.232869 307.03878 
L 821.062377 306.16902 
L 822.891885 288.77382 
L 824.721393 219.6279 
L 826.550902 216.14886 
L 828.38041 285.72966 
L 830.209918 307.03878 
L 832.039426 306.16902 
L 833.868934 307.03878 
L 835.698443 307.03878 
L 837.527951 306.16902 
L 839.357459 293.99238 
L 841.186967 230.06502 
L 843.016475 184.8375 
L 844.845984 239.1975 
L 846.675492 297.47142 
L 848.505 306.16902 
L 850.334508 307.03878 
L 853.993525 307.03878 
L 855.823033 305.29926 
L 857.652541 300.0807 
L 861.311557 184.8375 
L 863.141066 222.23718 
L 864.970574 287.46918 
L 866.800082 305.29926 
L 872.288607 305.29926 
L 875.947623 307.03878 
L 877.777131 287.46918 
L 879.606639 218.32326 
L 881.436148 186.14214 
L 883.265656 249.19974 
L 885.095164 302.2551 
L 886.924672 307.90854 
L 888.75418 306.16902 
L 890.583689 306.16902 
L 892.413197 307.03878 
L 894.242705 307.03878 
L 897.901721 305.29926 
L 899.73123 306.16902 
L 901.560738 305.29926 
L 903.390246 296.60166 
L 905.219754 247.46022 
L 907.049262 185.27238 
L 908.87877 173.9655 
L 910.708279 215.2791 
L 912.537787 274.85766 
L 914.367295 303.55974 
L 916.196803 306.16902 
L 918.026311 305.29926 
L 919.85582 306.16902 
L 921.685328 305.29926 
L 923.514836 306.16902 
L 925.344344 306.16902 
L 927.173852 307.03878 
L 929.003361 304.86438 
L 930.832869 307.90854 
L 936.321393 305.29926 
L 938.150902 306.16902 
L 943.639426 306.16902 
L 945.468934 303.12486 
L 947.298443 274.85766 
L 949.127951 223.54182 
L 950.957459 177.87942 
L 952.786967 162.22374 
L 954.616475 189.62118 
L 956.445984 250.93926 
L 958.275492 297.03654 
L 960.105 307.03878 
L 961.934508 307.03878 
L 965.593525 305.29926 
L 967.423033 307.03878 
L 971.082049 305.29926 
L 974.741066 307.03878 
L 980.22959 307.03878 
L 982.059098 304.86438 
L 983.888607 306.16902 
L 985.718115 307.03878 
L 989.377131 305.29926 
L 991.206639 306.16902 
L 993.036148 305.29926 
L 994.865656 306.16902 
L 996.695164 306.16902 
L 998.524672 307.03878 
L 1000.35418 306.16902 
L 1002.183689 306.16902 
L 1004.013197 307.03878 
L 1007.672213 305.29926 
L 1009.501721 287.0343 
L 1011.33123 224.84646 
L 1013.160738 174.40038 
L 1014.990246 210.49542 
L 1016.819754 281.81574 
L 1018.649262 307.03878 
L 1020.47877 305.29926 
L 1024.137787 307.03878 
L 1025.967295 304.86438 
L 1027.796803 306.16902 
L 1029.626311 301.82022 
L 1031.45582 251.80902 
L 1033.285328 184.8375 
L 1035.114836 173.9655 
L 1036.944344 224.41158 
L 1038.773852 282.6855 
L 1040.603361 304.86438 
L 1042.432869 306.16902 
L 1044.262377 307.03878 
L 1049.750902 307.03878 
L 1051.58041 306.16902 
L 1053.409918 174.83526 
L 1055.239426 306.16902 
L 1057.068934 305.29926 
L 1058.898443 305.29926 
L 1062.557459 307.03878 
L 1064.386967 306.16902 
L 1066.216475 307.03878 
L 1068.045984 307.03878 
L 1069.875492 306.16902 
L 1071.705 307.03878 
L 1073.534508 306.16902 
L 1075.364016 304.86438 
L 1077.193525 305.29926 
L 1080.852541 307.03878 
L 1082.682049 306.16902 
L 1084.511557 307.03878 
L 1086.341066 280.07622 
L 1088.170574 211.36518 
L 1090.000082 175.27014 
L 1091.82959 229.19526 
L 1093.659098 292.25286 
L 1095.488607 306.16902 
L 1097.318115 305.29926 
L 1099.147623 306.16902 
L 1102.806639 306.16902 
L 1104.636148 273.9879 
L 1106.465656 203.10246 
L 1108.295164 204.84198 
L 1110.124672 277.90182 
L 1111.95418 306.16902 
L 1113.783689 307.03878 
L 1113.783689 307.03878 
" clip-path="url(#p73b69e5867)" style="fill: none; stroke: #00b945; stroke-width: 2; stroke-linecap: square"/>
   </g>
   <g id="patch_3">
    <path d="M 67.305 456.6375 
L 67.305 21.7575 
" style="fill: none; stroke: #000000; stroke-linejoin: miter; stroke-linecap: square"/>
   </g>
   <g id="patch_4">
    <path d="M 1183.305 456.6375 
L 1183.305 21.7575 
" style="fill: none; stroke: #000000; stroke-linejoin: miter; stroke-linecap: square"/>
   </g>
   <g id="patch_5">
    <path d="M 67.305 456.6375 
L 1183.305 456.6375 
" style="fill: none; stroke: #000000; stroke-linejoin: miter; stroke-linecap: square"/>
   </g>
   <g id="patch_6">
    <path d="M 67.305 21.7575 
L 1183.305 21.7575 
" style="fill: none; stroke: #000000; stroke-linejoin: miter; stroke-linecap: square"/>
   </g>
   <g id="text_16">
    <!-- 1#wire temperature-2#wire temperature-time diagram -->
    <g transform="translate(402.8225 15.7575)scale(0.16 -0.16)">
     <defs>
      <path id="DejaVuSans-23" d="M 3272 2816 
L 2363 2816 
L 2100 1772 
L 3016 1772 
L 3272 2816 
z
M 2803 4594 
L 2478 3297 
L 3391 3297 
L 3719 4594 
L 4219 4594 
L 3897 3297 
L 4872 3297 
L 4872 2816 
L 3775 2816 
L 3519 1772 
L 4513 1772 
L 4513 1294 
L 3397 1294 
L 3072 0 
L 2572 0 
L 2894 1294 
L 1978 1294 
L 1656 0 
L 1153 0 
L 1478 1294 
L 494 1294 
L 494 1772 
L 1594 1772 
L 1856 2816 
L 850 2816 
L 850 3297 
L 1978 3297 
L 2297 4594 
L 2803 4594 
z
" transform="scale(0.015625)"/>
      <path id="DejaVuSans-77" d="M 269 3500 
L 844 3500 
L 1563 769 
L 2278 3500 
L 2956 3500 
L 3675 769 
L 4391 3500 
L 4966 3500 
L 4050 0 
L 3372 0 
L 2619 2869 
L 1863 0 
L 1184 0 
L 269 3500 
z
" transform="scale(0.015625)"/>
      <path id="DejaVuSans-2d" d="M 313 2009 
L 1997 2009 
L 1997 1497 
L 313 1497 
L 313 2009 
z
" transform="scale(0.015625)"/>
      <path id="DejaVuSans-64" d="M 2906 2969 
L 2906 4863 
L 3481 4863 
L 3481 0 
L 2906 0 
L 2906 525 
Q 2725 213 2448 61 
Q 2172 -91 1784 -91 
Q 1150 -91 751 415 
Q 353 922 353 1747 
Q 353 2572 751 3078 
Q 1150 3584 1784 3584 
Q 2172 3584 2448 3432 
Q 2725 3281 2906 2969 
z
M 947 1747 
Q 947 1113 1208 752 
Q 1469 391 1925 391 
Q 2381 391 2643 752 
Q 2906 1113 2906 1747 
Q 2906 2381 2643 2742 
Q 2381 3103 1925 3103 
Q 1469 3103 1208 2742 
Q 947 2381 947 1747 
z
" transform="scale(0.015625)"/>
      <path id="DejaVuSans-67" d="M 2906 1791 
Q 2906 2416 2648 2759 
Q 2391 3103 1925 3103 
Q 1463 3103 1205 2759 
Q 947 2416 947 1791 
Q 947 1169 1205 825 
Q 1463 481 1925 481 
Q 2391 481 2648 825 
Q 2906 1169 2906 1791 
z
M 3481 434 
Q 3481 -459 3084 -895 
Q 2688 -1331 1869 -1331 
Q 1566 -1331 1297 -1286 
Q 1028 -1241 775 -1147 
L 775 -588 
Q 1028 -725 1275 -790 
Q 1522 -856 1778 -856 
Q 2344 -856 2625 -561 
Q 2906 -266 2906 331 
L 2906 616 
Q 2728 306 2450 153 
Q 2172 0 1784 0 
Q 1141 0 747 490 
Q 353 981 353 1791 
Q 353 2603 747 3093 
Q 1141 3584 1784 3584 
Q 2172 3584 2450 3431 
Q 2728 3278 2906 2969 
L 2906 3500 
L 3481 3500 
L 3481 434 
z
" transform="scale(0.015625)"/>
     </defs>
     <use xlink:href="#DejaVuSans-31"/>
     <use xlink:href="#DejaVuSans-23" x="63.623047"/>
     <use xlink:href="#DejaVuSans-77" x="147.412109"/>
     <use xlink:href="#DejaVuSans-69" x="229.199219"/>
     <use xlink:href="#DejaVuSans-72" x="256.982422"/>
     <use xlink:href="#DejaVuSans-65" x="295.845703"/>
     <use xlink:href="#DejaVuSans-20" x="357.369141"/>
     <use xlink:href="#DejaVuSans-74" x="389.15625"/>
     <use xlink:href="#DejaVuSans-65" x="428.365234"/>
     <use xlink:href="#DejaVuSans-6d" x="489.888672"/>
     <use xlink:href="#DejaVuSans-70" x="587.300781"/>
     <use xlink:href="#DejaVuSans-65" x="650.777344"/>
     <use xlink:href="#DejaVuSans-72" x="712.300781"/>
     <use xlink:href="#DejaVuSans-61" x="753.414062"/>
     <use xlink:href="#DejaVuSans-74" x="814.693359"/>
     <use xlink:href="#DejaVuSans-75" x="853.902344"/>
     <use xlink:href="#DejaVuSans-72" x="917.28125"/>
     <use xlink:href="#DejaVuSans-65" x="956.144531"/>
     <use xlink:href="#DejaVuSans-2d" x="1017.667969"/>
     <use xlink:href="#DejaVuSans-32" x="1053.751953"/>
     <use xlink:href="#DejaVuSans-23" x="1117.375"/>
     <use xlink:href="#DejaVuSans-77" x="1201.164062"/>
     <use xlink:href="#DejaVuSans-69" x="1282.951172"/>
     <use xlink:href="#DejaVuSans-72" x="1310.734375"/>
     <use xlink:href="#DejaVuSans-65" x="1349.597656"/>
     <use xlink:href="#DejaVuSans-20" x="1411.121094"/>
     <use xlink:href="#DejaVuSans-74" x="1442.908203"/>
     <use xlink:href="#DejaVuSans-65" x="1482.117188"/>
     <use xlink:href="#DejaVuSans-6d" x="1543.640625"/>
     <use xlink:href="#DejaVuSans-70" x="1641.052734"/>
     <use xlink:href="#DejaVuSans-65" x="1704.529297"/>
     <use xlink:href="#DejaVuSans-72" x="1766.052734"/>
     <use xlink:href="#DejaVuSans-61" x="1807.166016"/>
     <use xlink:href="#DejaVuSans-74" x="1868.445312"/>
     <use xlink:href="#DejaVuSans-75" x="1907.654297"/>
     <use xlink:href="#DejaVuSans-72" x="1971.033203"/>
     <use xlink:href="#DejaVuSans-65" x="2009.896484"/>
     <use xlink:href="#DejaVuSans-2d" x="2071.419922"/>
     <use xlink:href="#DejaVuSans-74" x="2107.503906"/>
     <use xlink:href="#DejaVuSans-69" x="2146.712891"/>
     <use xlink:href="#DejaVuSans-6d" x="2174.496094"/>
     <use xlink:href="#DejaVuSans-65" x="2271.908203"/>
     <use xlink:href="#DejaVuSans-20" x="2333.431641"/>
     <use xlink:href="#DejaVuSans-64" x="2365.21875"/>
     <use xlink:href="#DejaVuSans-69" x="2428.695312"/>
     <use xlink:href="#DejaVuSans-61" x="2456.478516"/>
     <use xlink:href="#DejaVuSans-67" x="2517.757812"/>
     <use xlink:href="#DejaVuSans-72" x="2581.234375"/>
     <use xlink:href="#DejaVuSans-61" x="2622.347656"/>
     <use xlink:href="#DejaVuSans-6d" x="2683.626953"/>
    </g>
   </g>
   <g id="legend_1">
    <g id="patch_7">
     <path d="M 967.97 81.5275 
L 1172.105 81.5275 
Q 1175.305 81.5275 1175.305 78.3275 
L 1175.305 32.9575 
Q 1175.305 29.7575 1172.105 29.7575 
L 967.97 29.7575 
Q 964.77 29.7575 964.77 32.9575 
L 964.77 78.3275 
Q 964.77 81.5275 967.97 81.5275 
z
" style="fill: #ffffff; stroke: #cccccc; stroke-linejoin: miter"/>
    </g>
    <g id="line2d_120">
     <path d="M 971.17 42.715 
L 987.17 42.715 
L 1003.17 42.715 
" style="fill: none; stroke: #0c5da5; stroke-width: 2; stroke-linecap: square"/>
    </g>
    <g id="text_17">
     <!-- No.1 thermocouple -->
     <g transform="translate(1015.97 48.315)scale(0.16 -0.16)">
      <defs>
       <path id="DejaVuSans-4e" d="M 628 4666 
L 1478 4666 
L 3547 763 
L 3547 4666 
L 4159 4666 
L 4159 0 
L 3309 0 
L 1241 3903 
L 1241 0 
L 628 0 
L 628 4666 
z
" transform="scale(0.015625)"/>
       <path id="DejaVuSans-6f" d="M 1959 3097 
Q 1497 3097 1228 2736 
Q 959 2375 959 1747 
Q 959 1119 1226 758 
Q 1494 397 1959 397 
Q 2419 397 2687 759 
Q 2956 1122 2956 1747 
Q 2956 2369 2687 2733 
Q 2419 3097 1959 3097 
z
M 1959 3584 
Q 2709 3584 3137 3096 
Q 3566 2609 3566 1747 
Q 3566 888 3137 398 
Q 2709 -91 1959 -91 
Q 1206 -91 779 398 
Q 353 888 353 1747 
Q 353 2609 779 3096 
Q 1206 3584 1959 3584 
z
" transform="scale(0.015625)"/>
       <path id="DejaVuSans-2e" d="M 684 794 
L 1344 794 
L 1344 0 
L 684 0 
L 684 794 
z
" transform="scale(0.015625)"/>
       <path id="DejaVuSans-68" d="M 3513 2113 
L 3513 0 
L 2938 0 
L 2938 2094 
Q 2938 2591 2744 2837 
Q 2550 3084 2163 3084 
Q 1697 3084 1428 2787 
Q 1159 2491 1159 1978 
L 1159 0 
L 581 0 
L 581 4863 
L 1159 4863 
L 1159 2956 
Q 1366 3272 1645 3428 
Q 1925 3584 2291 3584 
Q 2894 3584 3203 3211 
Q 3513 2838 3513 2113 
z
" transform="scale(0.015625)"/>
       <path id="DejaVuSans-63" d="M 3122 3366 
L 3122 2828 
Q 2878 2963 2633 3030 
Q 2388 3097 2138 3097 
Q 1578 3097 1268 2742 
Q 959 2388 959 1747 
Q 959 1106 1268 751 
Q 1578 397 2138 397 
Q 2388 397 2633 464 
Q 2878 531 3122 666 
L 3122 134 
Q 2881 22 2623 -34 
Q 2366 -91 2075 -91 
Q 1284 -91 818 406 
Q 353 903 353 1747 
Q 353 2603 823 3093 
Q 1294 3584 2113 3584 
Q 2378 3584 2631 3529 
Q 2884 3475 3122 3366 
z
" transform="scale(0.015625)"/>
       <path id="DejaVuSans-6c" d="M 603 4863 
L 1178 4863 
L 1178 0 
L 603 0 
L 603 4863 
z
" transform="scale(0.015625)"/>
      </defs>
      <use xlink:href="#DejaVuSans-4e"/>
      <use xlink:href="#DejaVuSans-6f" x="74.804688"/>
      <use xlink:href="#DejaVuSans-2e" x="134.236328"/>
      <use xlink:href="#DejaVuSans-31" x="166.023438"/>
      <use xlink:href="#DejaVuSans-20" x="229.646484"/>
      <use xlink:href="#DejaVuSans-74" x="261.433594"/>
      <use xlink:href="#DejaVuSans-68" x="300.642578"/>
      <use xlink:href="#DejaVuSans-65" x="364.021484"/>
      <use xlink:href="#DejaVuSans-72" x="425.544922"/>
      <use xlink:href="#DejaVuSans-6d" x="464.908203"/>
      <use xlink:href="#DejaVuSans-6f" x="562.320312"/>
      <use xlink:href="#DejaVuSans-63" x="623.501953"/>
      <use xlink:href="#DejaVuSans-6f" x="678.482422"/>
      <use xlink:href="#DejaVuSans-75" x="739.664062"/>
      <use xlink:href="#DejaVuSans-70" x="803.042969"/>
      <use xlink:href="#DejaVuSans-6c" x="866.519531"/>
      <use xlink:href="#DejaVuSans-65" x="894.302734"/>
     </g>
    </g>
    <g id="line2d_121">
     <path d="M 971.17 66.2 
L 987.17 66.2 
L 1003.17 66.2 
" style="fill: none; stroke: #00b945; stroke-width: 2; stroke-linecap: square"/>
    </g>
    <g id="text_18">
     <!-- No.2 thermocouple -->
     <g transform="translate(1015.97 71.8)scale(0.16 -0.16)">
      <use xlink:href="#DejaVuSans-4e"/>
      <use xlink:href="#DejaVuSans-6f" x="74.804688"/>
      <use xlink:href="#DejaVuSans-2e" x="134.236328"/>
      <use xlink:href="#DejaVuSans-32" x="166.023438"/>
      <use xlink:href="#DejaVuSans-20" x="229.646484"/>
      <use xlink:href="#DejaVuSans-74" x="261.433594"/>
      <use xlink:href="#DejaVuSans-68" x="300.642578"/>
      <use xlink:href="#DejaVuSans-65" x="364.021484"/>
      <use xlink:href="#DejaVuSans-72" x="425.544922"/>
      <use xlink:href="#DejaVuSans-6d" x="464.908203"/>
      <use xlink:href="#DejaVuSans-6f" x="562.320312"/>
      <use xlink:href="#DejaVuSans-63" x="623.501953"/>
      <use xlink:href="#DejaVuSans-6f" x="678.482422"/>
      <use xlink:href="#DejaVuSans-75" x="739.664062"/>
      <use xlink:href="#DejaVuSans-70" x="803.042969"/>
      <use xlink:href="#DejaVuSans-6c" x="866.519531"/>
      <use xlink:href="#DejaVuSans-65" x="894.302734"/>
     </g>
    </g>
   </g>
  </g>
 </g>
 <defs>
  <clipPath id="p73b69e5867">
   <rect x="67.305" y="21.7575" width="1116" height="434.88"/>
  </clipPath>
 </defs>
</svg>
