<?xml version="1.0" encoding="utf-8" standalone="no"?>
<!DOCTYPE svg PUBLIC "-//W3C//DTD SVG 1.1//EN"
  "http://www.w3.org/Graphics/SVG/1.1/DTD/svg11.dtd">
<svg xmlns:xlink="http://www.w3.org/1999/xlink" width="1202.175pt" height="498.7075pt" viewBox="0 0 1202.175 498.7075" xmlns="http://www.w3.org/2000/svg" version="1.1">
 <metadata>
  <rdf:RDF xmlns:dc="http://purl.org/dc/elements/1.1/" xmlns:cc="http://creativecommons.org/ns#" xmlns:rdf="http://www.w3.org/1999/02/22-rdf-syntax-ns#">
   <cc:Work>
    <dc:type rdf:resource="http://purl.org/dc/dcmitype/StillImage"/>
    <dc:date>2022-12-07T19:32:42.738930</dc:date>
    <dc:format>image/svg+xml</dc:format>
    <dc:creator>
     <cc:Agent>
      <dc:title>Matplotlib v3.5.1, https://matplotlib.org/</dc:title>
     </cc:Agent>
    </dc:creator>
   </cc:Work>
  </rdf:RDF>
 </metadata>
 <defs>
  <style type="text/css">*{stroke-linejoin: round; stroke-linecap: butt}</style>
 </defs>
 <g id="figure_1">
  <g id="patch_1">
   <path d="M 0 498.7075 
L 1202.175 498.7075 
L 1202.175 0 
L 0 0 
L 0 498.7075 
z
" style="fill: none"/>
  </g>
  <g id="axes_1">
   <g id="patch_2">
    <path d="M 67.305 456.6375 
L 1183.305 456.6375 
L 1183.305 21.7575 
L 67.305 21.7575 
z
" style="fill: #ffffff"/>
   </g>
   <g id="matplotlib.axis_1">
    <g id="xtick_1">
     <g id="line2d_1">
      <path d="M 85.600082 456.6375 
L 85.600082 21.7575 
" clip-path="url(#pb5591a3cd9)" style="fill: none; stroke-dasharray: 1.85,0.8; stroke-dashoffset: 0; stroke: #000000; stroke-opacity: 0.5; stroke-width: 0.5"/>
     </g>
     <g id="line2d_2">
      <defs>
       <path id="m3ecb7b03f7" d="M 0 0 
L 0 -6 
" style="stroke: #000000"/>
      </defs>
      <g>
       <use xlink:href="#m3ecb7b03f7" x="85.600082" y="456.6375" style="stroke: #000000"/>
      </g>
     </g>
     <g id="line2d_3">
      <defs>
       <path id="m0efc5f4664" d="M 0 0 
L 0 6 
" style="stroke: #000000"/>
      </defs>
      <g>
       <use xlink:href="#m0efc5f4664" x="85.600082" y="21.7575" style="stroke: #000000"/>
      </g>
     </g>
     <g id="text_1">
      <!-- 0 -->
      <g transform="translate(80.510082 472.295)scale(0.16 -0.16)">
       <defs>
        <path id="DejaVuSans-30" d="M 2034 4250 
Q 1547 4250 1301 3770 
Q 1056 3291 1056 2328 
Q 1056 1369 1301 889 
Q 1547 409 2034 409 
Q 2525 409 2770 889 
Q 3016 1369 3016 2328 
Q 3016 3291 2770 3770 
Q 2525 4250 2034 4250 
z
M 2034 4750 
Q 2819 4750 3233 4129 
Q 3647 3509 3647 2328 
Q 3647 1150 3233 529 
Q 2819 -91 2034 -91 
Q 1250 -91 836 529 
Q 422 1150 422 2328 
Q 422 3509 836 4129 
Q 1250 4750 2034 4750 
z
" transform="scale(0.015625)"/>
       </defs>
       <use xlink:href="#DejaVuSans-30"/>
      </g>
     </g>
    </g>
    <g id="xtick_2">
     <g id="line2d_4">
      <path d="M 268.550902 456.6375 
L 268.550902 21.7575 
" clip-path="url(#pb5591a3cd9)" style="fill: none; stroke-dasharray: 1.85,0.8; stroke-dashoffset: 0; stroke: #000000; stroke-opacity: 0.5; stroke-width: 0.5"/>
     </g>
     <g id="line2d_5">
      <g>
       <use xlink:href="#m3ecb7b03f7" x="268.550902" y="456.6375" style="stroke: #000000"/>
      </g>
     </g>
     <g id="line2d_6">
      <g>
       <use xlink:href="#m0efc5f4664" x="268.550902" y="21.7575" style="stroke: #000000"/>
      </g>
     </g>
     <g id="text_2">
      <!-- 100 -->
      <g transform="translate(253.280902 472.295)scale(0.16 -0.16)">
       <defs>
        <path id="DejaVuSans-31" d="M 794 531 
L 1825 531 
L 1825 4091 
L 703 3866 
L 703 4441 
L 1819 4666 
L 2450 4666 
L 2450 531 
L 3481 531 
L 3481 0 
L 794 0 
L 794 531 
z
" transform="scale(0.015625)"/>
       </defs>
       <use xlink:href="#DejaVuSans-31"/>
       <use xlink:href="#DejaVuSans-30" x="63.623047"/>
       <use xlink:href="#DejaVuSans-30" x="127.246094"/>
      </g>
     </g>
    </g>
    <g id="xtick_3">
     <g id="line2d_7">
      <path d="M 451.501721 456.6375 
L 451.501721 21.7575 
" clip-path="url(#pb5591a3cd9)" style="fill: none; stroke-dasharray: 1.85,0.8; stroke-dashoffset: 0; stroke: #000000; stroke-opacity: 0.5; stroke-width: 0.5"/>
     </g>
     <g id="line2d_8">
      <g>
       <use xlink:href="#m3ecb7b03f7" x="451.501721" y="456.6375" style="stroke: #000000"/>
      </g>
     </g>
     <g id="line2d_9">
      <g>
       <use xlink:href="#m0efc5f4664" x="451.501721" y="21.7575" style="stroke: #000000"/>
      </g>
     </g>
     <g id="text_3">
      <!-- 200 -->
      <g transform="translate(436.231721 472.295)scale(0.16 -0.16)">
       <defs>
        <path id="DejaVuSans-32" d="M 1228 531 
L 3431 531 
L 3431 0 
L 469 0 
L 469 531 
Q 828 903 1448 1529 
Q 2069 2156 2228 2338 
Q 2531 2678 2651 2914 
Q 2772 3150 2772 3378 
Q 2772 3750 2511 3984 
Q 2250 4219 1831 4219 
Q 1534 4219 1204 4116 
Q 875 4013 500 3803 
L 500 4441 
Q 881 4594 1212 4672 
Q 1544 4750 1819 4750 
Q 2544 4750 2975 4387 
Q 3406 4025 3406 3419 
Q 3406 3131 3298 2873 
Q 3191 2616 2906 2266 
Q 2828 2175 2409 1742 
Q 1991 1309 1228 531 
z
" transform="scale(0.015625)"/>
       </defs>
       <use xlink:href="#DejaVuSans-32"/>
       <use xlink:href="#DejaVuSans-30" x="63.623047"/>
       <use xlink:href="#DejaVuSans-30" x="127.246094"/>
      </g>
     </g>
    </g>
    <g id="xtick_4">
     <g id="line2d_10">
      <path d="M 634.452541 456.6375 
L 634.452541 21.7575 
" clip-path="url(#pb5591a3cd9)" style="fill: none; stroke-dasharray: 1.85,0.8; stroke-dashoffset: 0; stroke: #000000; stroke-opacity: 0.5; stroke-width: 0.5"/>
     </g>
     <g id="line2d_11">
      <g>
       <use xlink:href="#m3ecb7b03f7" x="634.452541" y="456.6375" style="stroke: #000000"/>
      </g>
     </g>
     <g id="line2d_12">
      <g>
       <use xlink:href="#m0efc5f4664" x="634.452541" y="21.7575" style="stroke: #000000"/>
      </g>
     </g>
     <g id="text_4">
      <!-- 300 -->
      <g transform="translate(619.182541 472.295)scale(0.16 -0.16)">
       <defs>
        <path id="DejaVuSans-33" d="M 2597 2516 
Q 3050 2419 3304 2112 
Q 3559 1806 3559 1356 
Q 3559 666 3084 287 
Q 2609 -91 1734 -91 
Q 1441 -91 1130 -33 
Q 819 25 488 141 
L 488 750 
Q 750 597 1062 519 
Q 1375 441 1716 441 
Q 2309 441 2620 675 
Q 2931 909 2931 1356 
Q 2931 1769 2642 2001 
Q 2353 2234 1838 2234 
L 1294 2234 
L 1294 2753 
L 1863 2753 
Q 2328 2753 2575 2939 
Q 2822 3125 2822 3475 
Q 2822 3834 2567 4026 
Q 2313 4219 1838 4219 
Q 1578 4219 1281 4162 
Q 984 4106 628 3988 
L 628 4550 
Q 988 4650 1302 4700 
Q 1616 4750 1894 4750 
Q 2613 4750 3031 4423 
Q 3450 4097 3450 3541 
Q 3450 3153 3228 2886 
Q 3006 2619 2597 2516 
z
" transform="scale(0.015625)"/>
       </defs>
       <use xlink:href="#DejaVuSans-33"/>
       <use xlink:href="#DejaVuSans-30" x="63.623047"/>
       <use xlink:href="#DejaVuSans-30" x="127.246094"/>
      </g>
     </g>
    </g>
    <g id="xtick_5">
     <g id="line2d_13">
      <path d="M 817.403361 456.6375 
L 817.403361 21.7575 
" clip-path="url(#pb5591a3cd9)" style="fill: none; stroke-dasharray: 1.85,0.8; stroke-dashoffset: 0; stroke: #000000; stroke-opacity: 0.5; stroke-width: 0.5"/>
     </g>
     <g id="line2d_14">
      <g>
       <use xlink:href="#m3ecb7b03f7" x="817.403361" y="456.6375" style="stroke: #000000"/>
      </g>
     </g>
     <g id="line2d_15">
      <g>
       <use xlink:href="#m0efc5f4664" x="817.403361" y="21.7575" style="stroke: #000000"/>
      </g>
     </g>
     <g id="text_5">
      <!-- 400 -->
      <g transform="translate(802.133361 472.295)scale(0.16 -0.16)">
       <defs>
        <path id="DejaVuSans-34" d="M 2419 4116 
L 825 1625 
L 2419 1625 
L 2419 4116 
z
M 2253 4666 
L 3047 4666 
L 3047 1625 
L 3713 1625 
L 3713 1100 
L 3047 1100 
L 3047 0 
L 2419 0 
L 2419 1100 
L 313 1100 
L 313 1709 
L 2253 4666 
z
" transform="scale(0.015625)"/>
       </defs>
       <use xlink:href="#DejaVuSans-34"/>
       <use xlink:href="#DejaVuSans-30" x="63.623047"/>
       <use xlink:href="#DejaVuSans-30" x="127.246094"/>
      </g>
     </g>
    </g>
    <g id="xtick_6">
     <g id="line2d_16">
      <path d="M 1000.35418 456.6375 
L 1000.35418 21.7575 
" clip-path="url(#pb5591a3cd9)" style="fill: none; stroke-dasharray: 1.85,0.8; stroke-dashoffset: 0; stroke: #000000; stroke-opacity: 0.5; stroke-width: 0.5"/>
     </g>
     <g id="line2d_17">
      <g>
       <use xlink:href="#m3ecb7b03f7" x="1000.35418" y="456.6375" style="stroke: #000000"/>
      </g>
     </g>
     <g id="line2d_18">
      <g>
       <use xlink:href="#m0efc5f4664" x="1000.35418" y="21.7575" style="stroke: #000000"/>
      </g>
     </g>
     <g id="text_6">
      <!-- 500 -->
      <g transform="translate(985.08418 472.295)scale(0.16 -0.16)">
       <defs>
        <path id="DejaVuSans-35" d="M 691 4666 
L 3169 4666 
L 3169 4134 
L 1269 4134 
L 1269 2991 
Q 1406 3038 1543 3061 
Q 1681 3084 1819 3084 
Q 2600 3084 3056 2656 
Q 3513 2228 3513 1497 
Q 3513 744 3044 326 
Q 2575 -91 1722 -91 
Q 1428 -91 1123 -41 
Q 819 9 494 109 
L 494 744 
Q 775 591 1075 516 
Q 1375 441 1709 441 
Q 2250 441 2565 725 
Q 2881 1009 2881 1497 
Q 2881 1984 2565 2268 
Q 2250 2553 1709 2553 
Q 1456 2553 1204 2497 
Q 953 2441 691 2322 
L 691 4666 
z
" transform="scale(0.015625)"/>
       </defs>
       <use xlink:href="#DejaVuSans-35"/>
       <use xlink:href="#DejaVuSans-30" x="63.623047"/>
       <use xlink:href="#DejaVuSans-30" x="127.246094"/>
      </g>
     </g>
    </g>
    <g id="xtick_7">
     <g id="line2d_19">
      <path d="M 1183.305 456.6375 
L 1183.305 21.7575 
" clip-path="url(#pb5591a3cd9)" style="fill: none; stroke-dasharray: 1.85,0.8; stroke-dashoffset: 0; stroke: #000000; stroke-opacity: 0.5; stroke-width: 0.5"/>
     </g>
     <g id="line2d_20">
      <g>
       <use xlink:href="#m3ecb7b03f7" x="1183.305" y="456.6375" style="stroke: #000000"/>
      </g>
     </g>
     <g id="line2d_21">
      <g>
       <use xlink:href="#m0efc5f4664" x="1183.305" y="21.7575" style="stroke: #000000"/>
      </g>
     </g>
     <g id="text_7">
      <!-- 600 -->
      <g transform="translate(1168.035 472.295)scale(0.16 -0.16)">
       <defs>
        <path id="DejaVuSans-36" d="M 2113 2584 
Q 1688 2584 1439 2293 
Q 1191 2003 1191 1497 
Q 1191 994 1439 701 
Q 1688 409 2113 409 
Q 2538 409 2786 701 
Q 3034 994 3034 1497 
Q 3034 2003 2786 2293 
Q 2538 2584 2113 2584 
z
M 3366 4563 
L 3366 3988 
Q 3128 4100 2886 4159 
Q 2644 4219 2406 4219 
Q 1781 4219 1451 3797 
Q 1122 3375 1075 2522 
Q 1259 2794 1537 2939 
Q 1816 3084 2150 3084 
Q 2853 3084 3261 2657 
Q 3669 2231 3669 1497 
Q 3669 778 3244 343 
Q 2819 -91 2113 -91 
Q 1303 -91 875 529 
Q 447 1150 447 2328 
Q 447 3434 972 4092 
Q 1497 4750 2381 4750 
Q 2619 4750 2861 4703 
Q 3103 4656 3366 4563 
z
" transform="scale(0.015625)"/>
       </defs>
       <use xlink:href="#DejaVuSans-36"/>
       <use xlink:href="#DejaVuSans-30" x="63.623047"/>
       <use xlink:href="#DejaVuSans-30" x="127.246094"/>
      </g>
     </g>
    </g>
    <g id="xtick_8">
     <g id="line2d_22">
      <defs>
       <path id="mdef251ebd0" d="M 0 0 
L 0 -3 
" style="stroke: #000000"/>
      </defs>
      <g>
       <use xlink:href="#mdef251ebd0" x="122.190246" y="456.6375" style="stroke: #000000"/>
      </g>
     </g>
     <g id="line2d_23">
      <defs>
       <path id="m807d8da7de" d="M 0 0 
L 0 3 
" style="stroke: #000000"/>
      </defs>
      <g>
       <use xlink:href="#m807d8da7de" x="122.190246" y="21.7575" style="stroke: #000000"/>
      </g>
     </g>
    </g>
    <g id="xtick_9">
     <g id="line2d_24">
      <g>
       <use xlink:href="#mdef251ebd0" x="158.78041" y="456.6375" style="stroke: #000000"/>
      </g>
     </g>
     <g id="line2d_25">
      <g>
       <use xlink:href="#m807d8da7de" x="158.78041" y="21.7575" style="stroke: #000000"/>
      </g>
     </g>
    </g>
    <g id="xtick_10">
     <g id="line2d_26">
      <g>
       <use xlink:href="#mdef251ebd0" x="195.370574" y="456.6375" style="stroke: #000000"/>
      </g>
     </g>
     <g id="line2d_27">
      <g>
       <use xlink:href="#m807d8da7de" x="195.370574" y="21.7575" style="stroke: #000000"/>
      </g>
     </g>
    </g>
    <g id="xtick_11">
     <g id="line2d_28">
      <g>
       <use xlink:href="#mdef251ebd0" x="231.960738" y="456.6375" style="stroke: #000000"/>
      </g>
     </g>
     <g id="line2d_29">
      <g>
       <use xlink:href="#m807d8da7de" x="231.960738" y="21.7575" style="stroke: #000000"/>
      </g>
     </g>
    </g>
    <g id="xtick_12">
     <g id="line2d_30">
      <g>
       <use xlink:href="#mdef251ebd0" x="305.141066" y="456.6375" style="stroke: #000000"/>
      </g>
     </g>
     <g id="line2d_31">
      <g>
       <use xlink:href="#m807d8da7de" x="305.141066" y="21.7575" style="stroke: #000000"/>
      </g>
     </g>
    </g>
    <g id="xtick_13">
     <g id="line2d_32">
      <g>
       <use xlink:href="#mdef251ebd0" x="341.73123" y="456.6375" style="stroke: #000000"/>
      </g>
     </g>
     <g id="line2d_33">
      <g>
       <use xlink:href="#m807d8da7de" x="341.73123" y="21.7575" style="stroke: #000000"/>
      </g>
     </g>
    </g>
    <g id="xtick_14">
     <g id="line2d_34">
      <g>
       <use xlink:href="#mdef251ebd0" x="378.321393" y="456.6375" style="stroke: #000000"/>
      </g>
     </g>
     <g id="line2d_35">
      <g>
       <use xlink:href="#m807d8da7de" x="378.321393" y="21.7575" style="stroke: #000000"/>
      </g>
     </g>
    </g>
    <g id="xtick_15">
     <g id="line2d_36">
      <g>
       <use xlink:href="#mdef251ebd0" x="414.911557" y="456.6375" style="stroke: #000000"/>
      </g>
     </g>
     <g id="line2d_37">
      <g>
       <use xlink:href="#m807d8da7de" x="414.911557" y="21.7575" style="stroke: #000000"/>
      </g>
     </g>
    </g>
    <g id="xtick_16">
     <g id="line2d_38">
      <g>
       <use xlink:href="#mdef251ebd0" x="488.091885" y="456.6375" style="stroke: #000000"/>
      </g>
     </g>
     <g id="line2d_39">
      <g>
       <use xlink:href="#m807d8da7de" x="488.091885" y="21.7575" style="stroke: #000000"/>
      </g>
     </g>
    </g>
    <g id="xtick_17">
     <g id="line2d_40">
      <g>
       <use xlink:href="#mdef251ebd0" x="524.682049" y="456.6375" style="stroke: #000000"/>
      </g>
     </g>
     <g id="line2d_41">
      <g>
       <use xlink:href="#m807d8da7de" x="524.682049" y="21.7575" style="stroke: #000000"/>
      </g>
     </g>
    </g>
    <g id="xtick_18">
     <g id="line2d_42">
      <g>
       <use xlink:href="#mdef251ebd0" x="561.272213" y="456.6375" style="stroke: #000000"/>
      </g>
     </g>
     <g id="line2d_43">
      <g>
       <use xlink:href="#m807d8da7de" x="561.272213" y="21.7575" style="stroke: #000000"/>
      </g>
     </g>
    </g>
    <g id="xtick_19">
     <g id="line2d_44">
      <g>
       <use xlink:href="#mdef251ebd0" x="597.862377" y="456.6375" style="stroke: #000000"/>
      </g>
     </g>
     <g id="line2d_45">
      <g>
       <use xlink:href="#m807d8da7de" x="597.862377" y="21.7575" style="stroke: #000000"/>
      </g>
     </g>
    </g>
    <g id="xtick_20">
     <g id="line2d_46">
      <g>
       <use xlink:href="#mdef251ebd0" x="671.042705" y="456.6375" style="stroke: #000000"/>
      </g>
     </g>
     <g id="line2d_47">
      <g>
       <use xlink:href="#m807d8da7de" x="671.042705" y="21.7575" style="stroke: #000000"/>
      </g>
     </g>
    </g>
    <g id="xtick_21">
     <g id="line2d_48">
      <g>
       <use xlink:href="#mdef251ebd0" x="707.632869" y="456.6375" style="stroke: #000000"/>
      </g>
     </g>
     <g id="line2d_49">
      <g>
       <use xlink:href="#m807d8da7de" x="707.632869" y="21.7575" style="stroke: #000000"/>
      </g>
     </g>
    </g>
    <g id="xtick_22">
     <g id="line2d_50">
      <g>
       <use xlink:href="#mdef251ebd0" x="744.223033" y="456.6375" style="stroke: #000000"/>
      </g>
     </g>
     <g id="line2d_51">
      <g>
       <use xlink:href="#m807d8da7de" x="744.223033" y="21.7575" style="stroke: #000000"/>
      </g>
     </g>
    </g>
    <g id="xtick_23">
     <g id="line2d_52">
      <g>
       <use xlink:href="#mdef251ebd0" x="780.813197" y="456.6375" style="stroke: #000000"/>
      </g>
     </g>
     <g id="line2d_53">
      <g>
       <use xlink:href="#m807d8da7de" x="780.813197" y="21.7575" style="stroke: #000000"/>
      </g>
     </g>
    </g>
    <g id="xtick_24">
     <g id="line2d_54">
      <g>
       <use xlink:href="#mdef251ebd0" x="853.993525" y="456.6375" style="stroke: #000000"/>
      </g>
     </g>
     <g id="line2d_55">
      <g>
       <use xlink:href="#m807d8da7de" x="853.993525" y="21.7575" style="stroke: #000000"/>
      </g>
     </g>
    </g>
    <g id="xtick_25">
     <g id="line2d_56">
      <g>
       <use xlink:href="#mdef251ebd0" x="890.583689" y="456.6375" style="stroke: #000000"/>
      </g>
     </g>
     <g id="line2d_57">
      <g>
       <use xlink:href="#m807d8da7de" x="890.583689" y="21.7575" style="stroke: #000000"/>
      </g>
     </g>
    </g>
    <g id="xtick_26">
     <g id="line2d_58">
      <g>
       <use xlink:href="#mdef251ebd0" x="927.173852" y="456.6375" style="stroke: #000000"/>
      </g>
     </g>
     <g id="line2d_59">
      <g>
       <use xlink:href="#m807d8da7de" x="927.173852" y="21.7575" style="stroke: #000000"/>
      </g>
     </g>
    </g>
    <g id="xtick_27">
     <g id="line2d_60">
      <g>
       <use xlink:href="#mdef251ebd0" x="963.764016" y="456.6375" style="stroke: #000000"/>
      </g>
     </g>
     <g id="line2d_61">
      <g>
       <use xlink:href="#m807d8da7de" x="963.764016" y="21.7575" style="stroke: #000000"/>
      </g>
     </g>
    </g>
    <g id="xtick_28">
     <g id="line2d_62">
      <g>
       <use xlink:href="#mdef251ebd0" x="1036.944344" y="456.6375" style="stroke: #000000"/>
      </g>
     </g>
     <g id="line2d_63">
      <g>
       <use xlink:href="#m807d8da7de" x="1036.944344" y="21.7575" style="stroke: #000000"/>
      </g>
     </g>
    </g>
    <g id="xtick_29">
     <g id="line2d_64">
      <g>
       <use xlink:href="#mdef251ebd0" x="1073.534508" y="456.6375" style="stroke: #000000"/>
      </g>
     </g>
     <g id="line2d_65">
      <g>
       <use xlink:href="#m807d8da7de" x="1073.534508" y="21.7575" style="stroke: #000000"/>
      </g>
     </g>
    </g>
    <g id="xtick_30">
     <g id="line2d_66">
      <g>
       <use xlink:href="#mdef251ebd0" x="1110.124672" y="456.6375" style="stroke: #000000"/>
      </g>
     </g>
     <g id="line2d_67">
      <g>
       <use xlink:href="#m807d8da7de" x="1110.124672" y="21.7575" style="stroke: #000000"/>
      </g>
     </g>
    </g>
    <g id="xtick_31">
     <g id="line2d_68">
      <g>
       <use xlink:href="#mdef251ebd0" x="1146.714836" y="456.6375" style="stroke: #000000"/>
      </g>
     </g>
     <g id="line2d_69">
      <g>
       <use xlink:href="#m807d8da7de" x="1146.714836" y="21.7575" style="stroke: #000000"/>
      </g>
     </g>
    </g>
    <g id="text_8">
     <!-- Time [s] -->
     <g transform="translate(592.77875 491.78)scale(0.16 -0.16)">
      <defs>
       <path id="DejaVuSans-54" d="M -19 4666 
L 3928 4666 
L 3928 4134 
L 2272 4134 
L 2272 0 
L 1638 0 
L 1638 4134 
L -19 4134 
L -19 4666 
z
" transform="scale(0.015625)"/>
       <path id="DejaVuSans-69" d="M 603 3500 
L 1178 3500 
L 1178 0 
L 603 0 
L 603 3500 
z
M 603 4863 
L 1178 4863 
L 1178 4134 
L 603 4134 
L 603 4863 
z
" transform="scale(0.015625)"/>
       <path id="DejaVuSans-6d" d="M 3328 2828 
Q 3544 3216 3844 3400 
Q 4144 3584 4550 3584 
Q 5097 3584 5394 3201 
Q 5691 2819 5691 2113 
L 5691 0 
L 5113 0 
L 5113 2094 
Q 5113 2597 4934 2840 
Q 4756 3084 4391 3084 
Q 3944 3084 3684 2787 
Q 3425 2491 3425 1978 
L 3425 0 
L 2847 0 
L 2847 2094 
Q 2847 2600 2669 2842 
Q 2491 3084 2119 3084 
Q 1678 3084 1418 2786 
Q 1159 2488 1159 1978 
L 1159 0 
L 581 0 
L 581 3500 
L 1159 3500 
L 1159 2956 
Q 1356 3278 1631 3431 
Q 1906 3584 2284 3584 
Q 2666 3584 2933 3390 
Q 3200 3197 3328 2828 
z
" transform="scale(0.015625)"/>
       <path id="DejaVuSans-65" d="M 3597 1894 
L 3597 1613 
L 953 1613 
Q 991 1019 1311 708 
Q 1631 397 2203 397 
Q 2534 397 2845 478 
Q 3156 559 3463 722 
L 3463 178 
Q 3153 47 2828 -22 
Q 2503 -91 2169 -91 
Q 1331 -91 842 396 
Q 353 884 353 1716 
Q 353 2575 817 3079 
Q 1281 3584 2069 3584 
Q 2775 3584 3186 3129 
Q 3597 2675 3597 1894 
z
M 3022 2063 
Q 3016 2534 2758 2815 
Q 2500 3097 2075 3097 
Q 1594 3097 1305 2825 
Q 1016 2553 972 2059 
L 3022 2063 
z
" transform="scale(0.015625)"/>
       <path id="DejaVuSans-20" transform="scale(0.015625)"/>
       <path id="DejaVuSans-5b" d="M 550 4863 
L 1875 4863 
L 1875 4416 
L 1125 4416 
L 1125 -397 
L 1875 -397 
L 1875 -844 
L 550 -844 
L 550 4863 
z
" transform="scale(0.015625)"/>
       <path id="DejaVuSans-73" d="M 2834 3397 
L 2834 2853 
Q 2591 2978 2328 3040 
Q 2066 3103 1784 3103 
Q 1356 3103 1142 2972 
Q 928 2841 928 2578 
Q 928 2378 1081 2264 
Q 1234 2150 1697 2047 
L 1894 2003 
Q 2506 1872 2764 1633 
Q 3022 1394 3022 966 
Q 3022 478 2636 193 
Q 2250 -91 1575 -91 
Q 1294 -91 989 -36 
Q 684 19 347 128 
L 347 722 
Q 666 556 975 473 
Q 1284 391 1588 391 
Q 1994 391 2212 530 
Q 2431 669 2431 922 
Q 2431 1156 2273 1281 
Q 2116 1406 1581 1522 
L 1381 1569 
Q 847 1681 609 1914 
Q 372 2147 372 2553 
Q 372 3047 722 3315 
Q 1072 3584 1716 3584 
Q 2034 3584 2315 3537 
Q 2597 3491 2834 3397 
z
" transform="scale(0.015625)"/>
       <path id="DejaVuSans-5d" d="M 1947 4863 
L 1947 -844 
L 622 -844 
L 622 -397 
L 1369 -397 
L 1369 4416 
L 622 4416 
L 622 4863 
L 1947 4863 
z
" transform="scale(0.015625)"/>
      </defs>
      <use xlink:href="#DejaVuSans-54"/>
      <use xlink:href="#DejaVuSans-69" x="57.958984"/>
      <use xlink:href="#DejaVuSans-6d" x="85.742188"/>
      <use xlink:href="#DejaVuSans-65" x="183.154297"/>
      <use xlink:href="#DejaVuSans-20" x="244.677734"/>
      <use xlink:href="#DejaVuSans-5b" x="276.464844"/>
      <use xlink:href="#DejaVuSans-73" x="315.478516"/>
      <use xlink:href="#DejaVuSans-5d" x="367.578125"/>
     </g>
    </g>
   </g>
   <g id="matplotlib.axis_2">
    <g id="ytick_1">
     <g id="line2d_70">
      <path d="M 67.305 456.6375 
L 1183.305 456.6375 
" clip-path="url(#pb5591a3cd9)" style="fill: none; stroke-dasharray: 1.85,0.8; stroke-dashoffset: 0; stroke: #000000; stroke-opacity: 0.5; stroke-width: 0.5"/>
     </g>
     <g id="line2d_71">
      <defs>
       <path id="m6b93cc02e8" d="M 0 0 
L 6 0 
" style="stroke: #000000"/>
      </defs>
      <g>
       <use xlink:href="#m6b93cc02e8" x="67.305" y="456.6375" style="stroke: #000000"/>
      </g>
     </g>
     <g id="line2d_72">
      <defs>
       <path id="m9c8d6a7e08" d="M 0 0 
L -6 0 
" style="stroke: #000000"/>
      </defs>
      <g>
       <use xlink:href="#m9c8d6a7e08" x="1183.305" y="456.6375" style="stroke: #000000"/>
      </g>
     </g>
     <g id="text_9">
      <!-- 800 -->
      <g transform="translate(33.265 462.71625)scale(0.16 -0.16)">
       <defs>
        <path id="DejaVuSans-38" d="M 2034 2216 
Q 1584 2216 1326 1975 
Q 1069 1734 1069 1313 
Q 1069 891 1326 650 
Q 1584 409 2034 409 
Q 2484 409 2743 651 
Q 3003 894 3003 1313 
Q 3003 1734 2745 1975 
Q 2488 2216 2034 2216 
z
M 1403 2484 
Q 997 2584 770 2862 
Q 544 3141 544 3541 
Q 544 4100 942 4425 
Q 1341 4750 2034 4750 
Q 2731 4750 3128 4425 
Q 3525 4100 3525 3541 
Q 3525 3141 3298 2862 
Q 3072 2584 2669 2484 
Q 3125 2378 3379 2068 
Q 3634 1759 3634 1313 
Q 3634 634 3220 271 
Q 2806 -91 2034 -91 
Q 1263 -91 848 271 
Q 434 634 434 1313 
Q 434 1759 690 2068 
Q 947 2378 1403 2484 
z
M 1172 3481 
Q 1172 3119 1398 2916 
Q 1625 2713 2034 2713 
Q 2441 2713 2670 2916 
Q 2900 3119 2900 3481 
Q 2900 3844 2670 4047 
Q 2441 4250 2034 4250 
Q 1625 4250 1398 4047 
Q 1172 3844 1172 3481 
z
" transform="scale(0.015625)"/>
       </defs>
       <use xlink:href="#DejaVuSans-38"/>
       <use xlink:href="#DejaVuSans-30" x="63.623047"/>
       <use xlink:href="#DejaVuSans-30" x="127.246094"/>
      </g>
     </g>
    </g>
    <g id="ytick_2">
     <g id="line2d_73">
      <path d="M 67.305 369.6615 
L 1183.305 369.6615 
" clip-path="url(#pb5591a3cd9)" style="fill: none; stroke-dasharray: 1.85,0.8; stroke-dashoffset: 0; stroke: #000000; stroke-opacity: 0.5; stroke-width: 0.5"/>
     </g>
     <g id="line2d_74">
      <g>
       <use xlink:href="#m6b93cc02e8" x="67.305" y="369.6615" style="stroke: #000000"/>
      </g>
     </g>
     <g id="line2d_75">
      <g>
       <use xlink:href="#m9c8d6a7e08" x="1183.305" y="369.6615" style="stroke: #000000"/>
      </g>
     </g>
     <g id="text_10">
      <!-- 1000 -->
      <g transform="translate(23.085 375.74025)scale(0.16 -0.16)">
       <use xlink:href="#DejaVuSans-31"/>
       <use xlink:href="#DejaVuSans-30" x="63.623047"/>
       <use xlink:href="#DejaVuSans-30" x="127.246094"/>
       <use xlink:href="#DejaVuSans-30" x="190.869141"/>
      </g>
     </g>
    </g>
    <g id="ytick_3">
     <g id="line2d_76">
      <path d="M 67.305 282.6855 
L 1183.305 282.6855 
" clip-path="url(#pb5591a3cd9)" style="fill: none; stroke-dasharray: 1.85,0.8; stroke-dashoffset: 0; stroke: #000000; stroke-opacity: 0.5; stroke-width: 0.5"/>
     </g>
     <g id="line2d_77">
      <g>
       <use xlink:href="#m6b93cc02e8" x="67.305" y="282.6855" style="stroke: #000000"/>
      </g>
     </g>
     <g id="line2d_78">
      <g>
       <use xlink:href="#m9c8d6a7e08" x="1183.305" y="282.6855" style="stroke: #000000"/>
      </g>
     </g>
     <g id="text_11">
      <!-- 1200 -->
      <g transform="translate(23.085 288.76425)scale(0.16 -0.16)">
       <use xlink:href="#DejaVuSans-31"/>
       <use xlink:href="#DejaVuSans-32" x="63.623047"/>
       <use xlink:href="#DejaVuSans-30" x="127.246094"/>
       <use xlink:href="#DejaVuSans-30" x="190.869141"/>
      </g>
     </g>
    </g>
    <g id="ytick_4">
     <g id="line2d_79">
      <path d="M 67.305 195.7095 
L 1183.305 195.7095 
" clip-path="url(#pb5591a3cd9)" style="fill: none; stroke-dasharray: 1.85,0.8; stroke-dashoffset: 0; stroke: #000000; stroke-opacity: 0.5; stroke-width: 0.5"/>
     </g>
     <g id="line2d_80">
      <g>
       <use xlink:href="#m6b93cc02e8" x="67.305" y="195.7095" style="stroke: #000000"/>
      </g>
     </g>
     <g id="line2d_81">
      <g>
       <use xlink:href="#m9c8d6a7e08" x="1183.305" y="195.7095" style="stroke: #000000"/>
      </g>
     </g>
     <g id="text_12">
      <!-- 1400 -->
      <g transform="translate(23.085 201.78825)scale(0.16 -0.16)">
       <use xlink:href="#DejaVuSans-31"/>
       <use xlink:href="#DejaVuSans-34" x="63.623047"/>
       <use xlink:href="#DejaVuSans-30" x="127.246094"/>
       <use xlink:href="#DejaVuSans-30" x="190.869141"/>
      </g>
     </g>
    </g>
    <g id="ytick_5">
     <g id="line2d_82">
      <path d="M 67.305 108.7335 
L 1183.305 108.7335 
" clip-path="url(#pb5591a3cd9)" style="fill: none; stroke-dasharray: 1.85,0.8; stroke-dashoffset: 0; stroke: #000000; stroke-opacity: 0.5; stroke-width: 0.5"/>
     </g>
     <g id="line2d_83">
      <g>
       <use xlink:href="#m6b93cc02e8" x="67.305" y="108.7335" style="stroke: #000000"/>
      </g>
     </g>
     <g id="line2d_84">
      <g>
       <use xlink:href="#m9c8d6a7e08" x="1183.305" y="108.7335" style="stroke: #000000"/>
      </g>
     </g>
     <g id="text_13">
      <!-- 1600 -->
      <g transform="translate(23.085 114.81225)scale(0.16 -0.16)">
       <use xlink:href="#DejaVuSans-31"/>
       <use xlink:href="#DejaVuSans-36" x="63.623047"/>
       <use xlink:href="#DejaVuSans-30" x="127.246094"/>
       <use xlink:href="#DejaVuSans-30" x="190.869141"/>
      </g>
     </g>
    </g>
    <g id="ytick_6">
     <g id="line2d_85">
      <path d="M 67.305 21.7575 
L 1183.305 21.7575 
" clip-path="url(#pb5591a3cd9)" style="fill: none; stroke-dasharray: 1.85,0.8; stroke-dashoffset: 0; stroke: #000000; stroke-opacity: 0.5; stroke-width: 0.5"/>
     </g>
     <g id="line2d_86">
      <g>
       <use xlink:href="#m6b93cc02e8" x="67.305" y="21.7575" style="stroke: #000000"/>
      </g>
     </g>
     <g id="line2d_87">
      <g>
       <use xlink:href="#m9c8d6a7e08" x="1183.305" y="21.7575" style="stroke: #000000"/>
      </g>
     </g>
     <g id="text_14">
      <!-- 1800 -->
      <g transform="translate(23.085 27.83625)scale(0.16 -0.16)">
       <use xlink:href="#DejaVuSans-31"/>
       <use xlink:href="#DejaVuSans-38" x="63.623047"/>
       <use xlink:href="#DejaVuSans-30" x="127.246094"/>
       <use xlink:href="#DejaVuSans-30" x="190.869141"/>
      </g>
     </g>
    </g>
    <g id="ytick_7">
     <g id="line2d_88">
      <defs>
       <path id="m28d68b78f3" d="M 0 0 
L 3 0 
" style="stroke: #000000"/>
      </defs>
      <g>
       <use xlink:href="#m28d68b78f3" x="67.305" y="434.8935" style="stroke: #000000"/>
      </g>
     </g>
     <g id="line2d_89">
      <defs>
       <path id="m04465e7f66" d="M 0 0 
L -3 0 
" style="stroke: #000000"/>
      </defs>
      <g>
       <use xlink:href="#m04465e7f66" x="1183.305" y="434.8935" style="stroke: #000000"/>
      </g>
     </g>
    </g>
    <g id="ytick_8">
     <g id="line2d_90">
      <g>
       <use xlink:href="#m28d68b78f3" x="67.305" y="413.1495" style="stroke: #000000"/>
      </g>
     </g>
     <g id="line2d_91">
      <g>
       <use xlink:href="#m04465e7f66" x="1183.305" y="413.1495" style="stroke: #000000"/>
      </g>
     </g>
    </g>
    <g id="ytick_9">
     <g id="line2d_92">
      <g>
       <use xlink:href="#m28d68b78f3" x="67.305" y="391.4055" style="stroke: #000000"/>
      </g>
     </g>
     <g id="line2d_93">
      <g>
       <use xlink:href="#m04465e7f66" x="1183.305" y="391.4055" style="stroke: #000000"/>
      </g>
     </g>
    </g>
    <g id="ytick_10">
     <g id="line2d_94">
      <g>
       <use xlink:href="#m28d68b78f3" x="67.305" y="347.9175" style="stroke: #000000"/>
      </g>
     </g>
     <g id="line2d_95">
      <g>
       <use xlink:href="#m04465e7f66" x="1183.305" y="347.9175" style="stroke: #000000"/>
      </g>
     </g>
    </g>
    <g id="ytick_11">
     <g id="line2d_96">
      <g>
       <use xlink:href="#m28d68b78f3" x="67.305" y="326.1735" style="stroke: #000000"/>
      </g>
     </g>
     <g id="line2d_97">
      <g>
       <use xlink:href="#m04465e7f66" x="1183.305" y="326.1735" style="stroke: #000000"/>
      </g>
     </g>
    </g>
    <g id="ytick_12">
     <g id="line2d_98">
      <g>
       <use xlink:href="#m28d68b78f3" x="67.305" y="304.4295" style="stroke: #000000"/>
      </g>
     </g>
     <g id="line2d_99">
      <g>
       <use xlink:href="#m04465e7f66" x="1183.305" y="304.4295" style="stroke: #000000"/>
      </g>
     </g>
    </g>
    <g id="ytick_13">
     <g id="line2d_100">
      <g>
       <use xlink:href="#m28d68b78f3" x="67.305" y="260.9415" style="stroke: #000000"/>
      </g>
     </g>
     <g id="line2d_101">
      <g>
       <use xlink:href="#m04465e7f66" x="1183.305" y="260.9415" style="stroke: #000000"/>
      </g>
     </g>
    </g>
    <g id="ytick_14">
     <g id="line2d_102">
      <g>
       <use xlink:href="#m28d68b78f3" x="67.305" y="239.1975" style="stroke: #000000"/>
      </g>
     </g>
     <g id="line2d_103">
      <g>
       <use xlink:href="#m04465e7f66" x="1183.305" y="239.1975" style="stroke: #000000"/>
      </g>
     </g>
    </g>
    <g id="ytick_15">
     <g id="line2d_104">
      <g>
       <use xlink:href="#m28d68b78f3" x="67.305" y="217.4535" style="stroke: #000000"/>
      </g>
     </g>
     <g id="line2d_105">
      <g>
       <use xlink:href="#m04465e7f66" x="1183.305" y="217.4535" style="stroke: #000000"/>
      </g>
     </g>
    </g>
    <g id="ytick_16">
     <g id="line2d_106">
      <g>
       <use xlink:href="#m28d68b78f3" x="67.305" y="173.9655" style="stroke: #000000"/>
      </g>
     </g>
     <g id="line2d_107">
      <g>
       <use xlink:href="#m04465e7f66" x="1183.305" y="173.9655" style="stroke: #000000"/>
      </g>
     </g>
    </g>
    <g id="ytick_17">
     <g id="line2d_108">
      <g>
       <use xlink:href="#m28d68b78f3" x="67.305" y="152.2215" style="stroke: #000000"/>
      </g>
     </g>
     <g id="line2d_109">
      <g>
       <use xlink:href="#m04465e7f66" x="1183.305" y="152.2215" style="stroke: #000000"/>
      </g>
     </g>
    </g>
    <g id="ytick_18">
     <g id="line2d_110">
      <g>
       <use xlink:href="#m28d68b78f3" x="67.305" y="130.4775" style="stroke: #000000"/>
      </g>
     </g>
     <g id="line2d_111">
      <g>
       <use xlink:href="#m04465e7f66" x="1183.305" y="130.4775" style="stroke: #000000"/>
      </g>
     </g>
    </g>
    <g id="ytick_19">
     <g id="line2d_112">
      <g>
       <use xlink:href="#m28d68b78f3" x="67.305" y="86.9895" style="stroke: #000000"/>
      </g>
     </g>
     <g id="line2d_113">
      <g>
       <use xlink:href="#m04465e7f66" x="1183.305" y="86.9895" style="stroke: #000000"/>
      </g>
     </g>
    </g>
    <g id="ytick_20">
     <g id="line2d_114">
      <g>
       <use xlink:href="#m28d68b78f3" x="67.305" y="65.2455" style="stroke: #000000"/>
      </g>
     </g>
     <g id="line2d_115">
      <g>
       <use xlink:href="#m04465e7f66" x="1183.305" y="65.2455" style="stroke: #000000"/>
      </g>
     </g>
    </g>
    <g id="ytick_21">
     <g id="line2d_116">
      <g>
       <use xlink:href="#m28d68b78f3" x="67.305" y="43.5015" style="stroke: #000000"/>
      </g>
     </g>
     <g id="line2d_117">
      <g>
       <use xlink:href="#m04465e7f66" x="1183.305" y="43.5015" style="stroke: #000000"/>
      </g>
     </g>
    </g>
    <g id="text_15">
     <!-- temperature [℃] -->
     <g transform="translate(15.7575 307.24875)rotate(-90)scale(0.16 -0.16)">
      <defs>
       <path id="DejaVuSans-74" d="M 1172 4494 
L 1172 3500 
L 2356 3500 
L 2356 3053 
L 1172 3053 
L 1172 1153 
Q 1172 725 1289 603 
Q 1406 481 1766 481 
L 2356 481 
L 2356 0 
L 1766 0 
Q 1100 0 847 248 
Q 594 497 594 1153 
L 594 3053 
L 172 3053 
L 172 3500 
L 594 3500 
L 594 4494 
L 1172 4494 
z
" transform="scale(0.015625)"/>
       <path id="DejaVuSans-70" d="M 1159 525 
L 1159 -1331 
L 581 -1331 
L 581 3500 
L 1159 3500 
L 1159 2969 
Q 1341 3281 1617 3432 
Q 1894 3584 2278 3584 
Q 2916 3584 3314 3078 
Q 3713 2572 3713 1747 
Q 3713 922 3314 415 
Q 2916 -91 2278 -91 
Q 1894 -91 1617 61 
Q 1341 213 1159 525 
z
M 3116 1747 
Q 3116 2381 2855 2742 
Q 2594 3103 2138 3103 
Q 1681 3103 1420 2742 
Q 1159 2381 1159 1747 
Q 1159 1113 1420 752 
Q 1681 391 2138 391 
Q 2594 391 2855 752 
Q 3116 1113 3116 1747 
z
" transform="scale(0.015625)"/>
       <path id="DejaVuSans-72" d="M 2631 2963 
Q 2534 3019 2420 3045 
Q 2306 3072 2169 3072 
Q 1681 3072 1420 2755 
Q 1159 2438 1159 1844 
L 1159 0 
L 581 0 
L 581 3500 
L 1159 3500 
L 1159 2956 
Q 1341 3275 1631 3429 
Q 1922 3584 2338 3584 
Q 2397 3584 2469 3576 
Q 2541 3569 2628 3553 
L 2631 2963 
z
" transform="scale(0.015625)"/>
       <path id="DejaVuSans-61" d="M 2194 1759 
Q 1497 1759 1228 1600 
Q 959 1441 959 1056 
Q 959 750 1161 570 
Q 1363 391 1709 391 
Q 2188 391 2477 730 
Q 2766 1069 2766 1631 
L 2766 1759 
L 2194 1759 
z
M 3341 1997 
L 3341 0 
L 2766 0 
L 2766 531 
Q 2569 213 2275 61 
Q 1981 -91 1556 -91 
Q 1019 -91 701 211 
Q 384 513 384 1019 
Q 384 1609 779 1909 
Q 1175 2209 1959 2209 
L 2766 2209 
L 2766 2266 
Q 2766 2663 2505 2880 
Q 2244 3097 1772 3097 
Q 1472 3097 1187 3025 
Q 903 2953 641 2809 
L 641 3341 
Q 956 3463 1253 3523 
Q 1550 3584 1831 3584 
Q 2591 3584 2966 3190 
Q 3341 2797 3341 1997 
z
" transform="scale(0.015625)"/>
       <path id="DejaVuSans-75" d="M 544 1381 
L 544 3500 
L 1119 3500 
L 1119 1403 
Q 1119 906 1312 657 
Q 1506 409 1894 409 
Q 2359 409 2629 706 
Q 2900 1003 2900 1516 
L 2900 3500 
L 3475 3500 
L 3475 0 
L 2900 0 
L 2900 538 
Q 2691 219 2414 64 
Q 2138 -91 1772 -91 
Q 1169 -91 856 284 
Q 544 659 544 1381 
z
M 1991 3584 
L 1991 3584 
z
" transform="scale(0.015625)"/>
       <path id="DejaVuSans-2103" d="M 1600 4347 
Q 1350 4347 1178 4173 
Q 1006 4000 1006 3750 
Q 1006 3503 1178 3333 
Q 1350 3163 1600 3163 
Q 1850 3163 2022 3333 
Q 2194 3503 2194 3750 
Q 2194 3997 2020 4172 
Q 1847 4347 1600 4347 
z
M 1600 4750 
Q 1800 4750 1984 4673 
Q 2169 4597 2303 4453 
Q 2447 4313 2519 4134 
Q 2591 3956 2591 3750 
Q 2591 3338 2302 3052 
Q 2013 2766 1594 2766 
Q 1172 2766 890 3047 
Q 609 3328 609 3750 
Q 609 4169 896 4459 
Q 1184 4750 1600 4750 
z
M 6741 4306 
L 6741 3641 
Q 6422 3938 6061 4084 
Q 5700 4231 5294 4231 
Q 4494 4231 4069 3742 
Q 3644 3253 3644 2328 
Q 3644 1406 4069 917 
Q 4494 428 5294 428 
Q 5700 428 6061 575 
Q 6422 722 6741 1019 
L 6741 359 
Q 6409 134 6039 21 
Q 5669 -91 5256 -91 
Q 4197 -91 3587 557 
Q 2978 1206 2978 2328 
Q 2978 3453 3587 4101 
Q 4197 4750 5256 4750 
Q 5675 4750 6045 4639 
Q 6416 4528 6741 4306 
z
" transform="scale(0.015625)"/>
      </defs>
      <use xlink:href="#DejaVuSans-74"/>
      <use xlink:href="#DejaVuSans-65" x="39.208984"/>
      <use xlink:href="#DejaVuSans-6d" x="100.732422"/>
      <use xlink:href="#DejaVuSans-70" x="198.144531"/>
      <use xlink:href="#DejaVuSans-65" x="261.621094"/>
      <use xlink:href="#DejaVuSans-72" x="323.144531"/>
      <use xlink:href="#DejaVuSans-61" x="364.257812"/>
      <use xlink:href="#DejaVuSans-74" x="425.537109"/>
      <use xlink:href="#DejaVuSans-75" x="464.746094"/>
      <use xlink:href="#DejaVuSans-72" x="528.125"/>
      <use xlink:href="#DejaVuSans-65" x="566.988281"/>
      <use xlink:href="#DejaVuSans-20" x="628.511719"/>
      <use xlink:href="#DejaVuSans-5b" x="660.298828"/>
      <use xlink:href="#DejaVuSans-2103" x="699.3125"/>
      <use xlink:href="#DejaVuSans-5d" x="811.617188"/>
     </g>
    </g>
   </g>
   <g id="line2d_118">
    <path d="M 87.42959 360.52902 
L 89.259098 358.7895 
L 91.088607 357.48486 
L 92.918115 357.04998 
L 94.747623 356.18022 
L 96.577131 354.65814 
L 98.406639 353.78838 
L 102.065656 351.61398 
L 103.895164 351.39654 
L 105.724672 350.52678 
L 107.55418 347.9175 
L 109.383689 322.25958 
L 111.213197 288.99126 
L 113.042705 296.60166 
L 114.872213 329.86998 
L 116.701721 344.43846 
L 118.53123 343.13382 
L 120.360738 342.4815 
L 122.190246 341.17686 
L 124.019754 339.43734 
L 125.849262 331.17462 
L 127.67877 295.94934 
L 129.508279 285.9471 
L 131.337787 315.3015 
L 133.167295 327.2607 
L 134.996803 325.52118 
L 136.826311 324.21654 
L 138.65582 323.12934 
L 140.485328 316.17126 
L 142.314836 282.03318 
L 144.144344 274.85766 
L 145.973852 306.82134 
L 147.803361 320.52006 
L 149.632869 317.04102 
L 151.462377 316.17126 
L 153.291885 315.73638 
L 155.121393 307.03878 
L 156.950902 273.11814 
L 158.78041 270.94374 
L 160.609918 303.77718 
L 162.439426 312.69222 
L 164.268934 312.69222 
L 166.098443 311.38758 
L 167.927951 310.30038 
L 169.757459 301.38534 
L 171.586967 267.24726 
L 173.416475 264.85542 
L 175.245984 297.03654 
L 177.075492 304.64694 
L 178.905 304.4295 
L 180.734508 303.12486 
L 182.564016 302.90742 
L 184.393525 300.51558 
L 186.223033 277.90182 
L 188.052541 252.02646 
L 189.882049 272.03094 
L 191.711557 295.7319 
L 193.541066 295.07958 
L 195.370574 293.99238 
L 197.200082 293.77494 
L 199.02959 292.03542 
L 200.859098 270.94374 
L 202.688607 240.2847 
L 204.518115 254.63574 
L 206.347623 282.6855 
L 208.177131 285.72966 
L 210.006639 285.51222 
L 213.665656 283.33782 
L 215.495164 278.77158 
L 217.324672 246.15558 
L 219.15418 236.37078 
L 220.983689 266.16006 
L 222.813197 277.2495 
L 224.642705 276.59718 
L 226.472213 275.0751 
L 228.301721 273.9879 
L 230.13123 267.02982 
L 231.960738 233.7615 
L 233.790246 231.80454 
L 235.619754 262.46358 
L 237.449262 268.5519 
L 239.27877 267.4647 
L 241.108279 265.94262 
L 242.937787 264.63798 
L 244.767295 262.24614 
L 246.596803 238.98006 
L 248.426311 211.14774 
L 250.25582 229.63014 
L 252.085328 254.20086 
L 253.914836 253.54854 
L 255.744344 251.59158 
L 259.403361 249.41718 
L 261.232869 247.67766 
L 263.062377 224.41158 
L 264.891885 194.6223 
L 266.721393 212.66982 
L 268.550902 240.50214 
L 270.38041 243.11142 
L 272.209918 242.02422 
L 274.039426 240.2847 
L 275.868934 239.63238 
L 277.698443 237.24054 
L 279.527951 230.4999 
L 281.357459 197.8839 
L 283.186967 187.44678 
L 285.016475 218.75814 
L 286.845984 232.02198 
L 288.675492 230.71734 
L 290.505 230.28246 
L 292.334508 229.19526 
L 294.164016 229.19526 
L 295.993525 228.76038 
L 297.823033 212.0175 
L 299.652541 178.09686 
L 301.482049 182.88054 
L 303.311557 216.3663 
L 305.141066 229.19526 
L 306.970574 228.76038 
L 308.800082 229.19526 
L 310.62959 228.76038 
L 312.459098 228.76038 
L 316.118115 229.63014 
L 321.606639 229.63014 
L 323.436148 229.19526 
L 325.265656 228.54294 
L 327.095164 219.6279 
L 328.924672 207.88614 
L 330.75418 202.66758 
L 332.583689 200.71062 
L 334.413197 200.0583 
L 336.242705 203.75478 
L 338.072213 213.75702 
L 339.901721 225.49878 
L 341.73123 229.19526 
L 343.560738 229.63014 
L 345.390246 229.19526 
L 347.219754 229.19526 
L 349.049262 228.76038 
L 350.87877 229.19526 
L 352.708279 228.76038 
L 354.537787 228.76038 
L 356.367295 204.84198 
L 358.196803 184.8375 
L 360.026311 208.32102 
L 361.85582 229.19526 
L 363.685328 229.63014 
L 365.514836 229.63014 
L 367.344344 229.19526 
L 369.173852 226.80342 
L 371.003361 198.53622 
L 372.832869 183.31542 
L 374.662377 210.9303 
L 376.491885 228.76038 
L 378.321393 229.19526 
L 380.150902 228.76038 
L 381.98041 229.19526 
L 383.809918 228.54294 
L 385.639426 203.3199 
L 387.468934 184.40262 
L 389.298443 210.49542 
L 391.127951 229.63014 
L 392.957459 229.63014 
L 394.786967 229.19526 
L 396.616475 229.63014 
L 398.445984 229.19526 
L 400.275492 217.23606 
L 402.105 184.8375 
L 403.934508 189.1863 
L 405.764016 222.23718 
L 407.593525 229.19526 
L 409.423033 229.63014 
L 418.570574 229.63014 
L 420.400082 227.2383 
L 422.22959 212.66982 
L 424.059098 189.62118 
L 425.888607 169.18182 
L 427.718115 157.6575 
L 429.547623 156.5703 
L 431.377131 157.00518 
L 433.206639 156.35286 
L 435.036148 157.00518 
L 436.865656 157.00518 
L 438.695164 156.5703 
L 440.524672 159.39702 
L 442.35418 167.65974 
L 444.183689 182.22822 
L 447.842705 220.49766 
L 449.672213 229.19526 
L 451.501721 229.63014 
L 455.160738 229.63014 
L 458.819754 228.76038 
L 460.649262 228.76038 
L 462.47877 228.54294 
L 464.308279 228.76038 
L 467.967295 229.63014 
L 477.114836 229.63014 
L 478.944344 230.06502 
L 480.773852 230.28246 
L 482.603361 230.93478 
L 484.432869 231.80454 
L 486.262377 231.80454 
L 488.091885 232.6743 
L 489.921393 233.10918 
L 491.750902 233.97894 
L 493.58041 234.41382 
L 495.409918 234.19638 
L 497.239426 234.8487 
L 499.068934 235.28358 
L 500.898443 235.28358 
L 502.727951 236.15334 
L 504.557459 236.15334 
L 506.386967 237.0231 
L 508.216475 237.45798 
L 510.045984 238.32774 
L 511.875492 238.32774 
L 513.705 239.1975 
L 515.534508 239.1975 
L 517.364016 239.63238 
L 519.193525 239.63238 
L 521.023033 240.50214 
L 522.852541 240.2847 
L 524.682049 241.3719 
L 526.511557 241.80678 
L 528.341066 242.67654 
L 530.170574 242.02422 
L 532.000082 242.67654 
L 535.659098 244.41606 
L 537.488607 243.98118 
L 539.318115 244.6335 
L 541.147623 244.41606 
L 546.636148 247.02534 
L 548.465656 247.24278 
L 550.295164 241.3719 
L 552.124672 225.49878 
L 553.95418 203.75478 
L 555.783689 184.18518 
L 557.613197 183.53286 
L 559.442705 207.6687 
L 561.272213 236.58822 
L 563.101721 249.63462 
L 566.760738 250.93926 
L 568.590246 251.1567 
L 570.419754 251.59158 
L 572.249262 251.59158 
L 574.07877 252.89622 
L 575.908279 252.89622 
L 577.737787 253.3311 
L 579.567295 253.54854 
L 581.396803 254.4183 
L 583.226311 253.76598 
L 585.05582 254.63574 
L 586.885328 254.63574 
L 588.714836 255.28806 
L 590.544344 255.28806 
L 592.373852 255.94038 
L 596.032869 256.81014 
L 597.862377 253.11366 
L 599.691885 238.54518 
L 601.521393 219.19302 
L 603.350902 202.66758 
L 605.18041 190.70838 
L 607.009918 187.0119 
L 608.839426 194.83974 
L 610.668934 213.32214 
L 612.498443 234.8487 
L 614.327951 252.46134 
L 616.157459 260.50662 
L 619.816475 262.24614 
L 621.645984 262.0287 
L 623.475492 262.46358 
L 625.305 262.46358 
L 627.134508 263.33334 
L 628.964016 263.1159 
L 630.793525 264.2031 
L 632.623033 264.42054 
L 634.452541 265.2903 
L 636.282049 265.72518 
L 638.111557 266.59494 
L 639.941066 265.50774 
L 641.770574 244.85094 
L 643.600082 211.36518 
L 645.42959 217.67094 
L 647.259098 252.46134 
L 649.088607 268.76934 
L 650.918115 269.42166 
L 652.747623 269.42166 
L 654.577131 270.29142 
L 656.406639 270.29142 
L 658.236148 269.85654 
L 661.895164 271.16118 
L 663.724672 271.16118 
L 665.55418 272.24838 
L 667.383689 262.89846 
L 669.213197 236.37078 
L 671.042705 211.58262 
L 672.872213 218.5407 
L 674.701721 248.76486 
L 676.53123 269.85654 
L 678.360738 275.0751 
L 680.190246 276.1623 
L 682.019754 276.37974 
L 685.67877 277.68438 
L 689.337787 277.2495 
L 691.167295 278.11926 
L 692.996803 278.3367 
L 694.826311 278.77158 
L 696.65582 279.64134 
L 698.485328 279.64134 
L 700.314836 280.72854 
L 702.144344 281.16342 
L 703.973852 280.94598 
L 705.803361 277.2495 
L 707.632869 268.5519 
L 709.462377 259.20198 
L 711.291885 248.9823 
L 713.121393 242.02422 
L 716.78041 231.80454 
L 718.609918 228.76038 
L 720.439426 222.67206 
L 722.268934 217.23606 
L 724.098443 214.40934 
L 725.927951 214.1919 
L 727.757459 214.62678 
L 729.586967 214.40934 
L 731.416475 215.06166 
L 733.245984 217.01862 
L 735.075492 222.23718 
L 736.905 230.93478 
L 738.734508 235.71846 
L 740.564016 238.98006 
L 742.393525 244.6335 
L 744.223033 253.3311 
L 746.052541 264.2031 
L 749.711557 284.42502 
L 751.541066 292.25286 
L 753.370574 293.12262 
L 757.02959 294.42726 
L 758.859098 294.42726 
L 760.688607 294.20982 
L 762.518115 295.29702 
L 764.347623 295.51446 
L 766.177131 295.94934 
L 768.006639 296.60166 
L 769.836148 297.47142 
L 771.665656 297.03654 
L 773.495164 283.99014 
L 775.324672 251.1567 
L 777.15418 233.32662 
L 778.983689 255.28806 
L 780.813197 286.81686 
L 782.642705 299.42838 
L 784.472213 300.29814 
L 786.301721 300.51558 
L 788.13123 300.95046 
L 789.960738 301.82022 
L 791.790246 302.2551 
L 793.619754 286.81686 
L 795.449262 256.37526 
L 797.27877 269.85654 
L 799.108279 300.73302 
L 800.937787 304.64694 
L 802.767295 305.29926 
L 806.426311 305.29926 
L 808.25582 288.33894 
L 810.085328 255.94038 
L 811.914836 268.11702 
L 813.744344 302.03766 
L 815.573852 308.12598 
L 817.403361 308.56086 
L 819.232869 309.64806 
L 821.062377 309.8655 
L 822.891885 301.60278 
L 824.721393 268.11702 
L 826.550902 266.81238 
L 828.38041 301.60278 
L 830.209918 312.47478 
L 832.039426 312.47478 
L 833.868934 313.1271 
L 835.698443 313.34454 
L 837.527951 313.1271 
L 839.357459 307.47366 
L 841.186967 275.94486 
L 843.016475 253.76598 
L 846.675492 310.08294 
L 848.505 314.64918 
L 850.334508 315.08406 
L 853.993525 315.51894 
L 855.823033 314.86662 
L 857.652541 312.69222 
L 861.311557 256.15782 
L 863.141066 275.50998 
L 864.970574 310.51782 
L 866.800082 317.91078 
L 868.62959 318.5631 
L 875.947623 322.04214 
L 877.777131 312.47478 
L 879.606639 278.11926 
L 881.436148 262.24614 
L 883.265656 293.99238 
L 885.095164 320.95494 
L 886.924672 324.21654 
L 888.75418 323.78166 
L 890.583689 324.43398 
L 892.413197 325.52118 
L 894.242705 325.95606 
L 897.901721 326.39094 
L 899.73123 327.69558 
L 901.560738 327.91302 
L 903.390246 323.9991 
L 905.219754 299.86326 
L 907.049262 268.98678 
L 908.87877 263.55078 
L 910.708279 284.42502 
L 912.537787 314.43174 
L 914.367295 329.4351 
L 916.196803 331.17462 
L 918.026311 331.39206 
L 919.85582 332.04438 
L 921.685328 332.26182 
L 923.514836 333.34902 
L 925.344344 333.7839 
L 927.173852 334.8711 
L 929.003361 334.43622 
L 930.832869 336.61062 
L 932.662377 336.82806 
L 936.321393 336.39318 
L 938.150902 337.0455 
L 939.98041 337.0455 
L 943.639426 337.48038 
L 945.468934 336.39318 
L 947.298443 322.9119 
L 949.127951 297.9063 
L 950.957459 275.72742 
L 952.786967 268.5519 
L 954.616475 282.6855 
L 956.445984 313.77942 
L 958.275492 337.48038 
L 960.105 343.35126 
L 961.934508 343.78614 
L 965.593525 343.35126 
L 967.423033 344.43846 
L 969.252541 344.00358 
L 971.082049 344.00358 
L 972.911557 344.87334 
L 974.741066 345.52566 
L 976.570574 345.52566 
L 978.400082 346.17798 
L 980.22959 346.61286 
L 982.059098 346.17798 
L 985.718115 348.78726 
L 987.547623 349.22214 
L 989.377131 349.43958 
L 991.206639 350.30934 
L 993.036148 350.52678 
L 994.865656 351.39654 
L 996.695164 351.61398 
L 998.524672 352.04886 
L 1000.35418 351.61398 
L 1002.183689 351.83142 
L 1004.013197 352.48374 
L 1007.672213 352.48374 
L 1009.501721 343.5687 
L 1011.33123 313.1271 
L 1013.160738 288.33894 
L 1014.990246 307.03878 
L 1016.819754 343.13382 
L 1018.649262 356.39766 
L 1020.47877 355.96278 
L 1024.137787 358.13718 
L 1025.967295 357.48486 
L 1027.796803 358.7895 
L 1029.626311 357.26742 
L 1031.45582 332.91414 
L 1033.285328 300.0807 
L 1035.114836 294.86214 
L 1036.944344 319.86774 
L 1038.773852 348.78726 
L 1040.603361 360.09414 
L 1042.432869 361.18134 
L 1044.262377 362.0511 
L 1049.750902 363.35574 
L 1051.58041 363.35574 
L 1053.409918 298.12374 
L 1055.239426 364.44294 
L 1057.068934 364.66038 
L 1058.898443 365.3127 
L 1060.727951 366.18246 
L 1062.557459 367.26966 
L 1064.386967 367.26966 
L 1066.216475 368.13942 
L 1068.045984 368.5743 
L 1069.875492 368.79174 
L 1071.705 369.44406 
L 1073.534508 369.22662 
L 1075.364016 368.79174 
L 1079.023033 370.09638 
L 1080.852541 370.96614 
L 1082.682049 370.96614 
L 1084.511557 371.8359 
L 1086.341066 359.00694 
L 1088.170574 325.30374 
L 1090.000082 307.90854 
L 1091.82959 335.08854 
L 1093.659098 367.05222 
L 1095.488607 374.44518 
L 1097.318115 374.88006 
L 1099.147623 375.53238 
L 1102.806639 375.96726 
L 1104.636148 360.74646 
L 1106.465656 326.1735 
L 1108.295164 327.2607 
L 1110.124672 364.00806 
L 1111.95418 378.3591 
L 1113.783689 379.22886 
L 1113.783689 379.22886 
" clip-path="url(#pb5591a3cd9)" style="fill: none; stroke: #0c5da5; stroke-width: 2; stroke-linecap: square"/>
   </g>
   <g id="patch_3">
    <path d="M 67.305 456.6375 
L 67.305 21.7575 
" style="fill: none; stroke: #000000; stroke-linejoin: miter; stroke-linecap: square"/>
   </g>
   <g id="patch_4">
    <path d="M 1183.305 456.6375 
L 1183.305 21.7575 
" style="fill: none; stroke: #000000; stroke-linejoin: miter; stroke-linecap: square"/>
   </g>
   <g id="patch_5">
    <path d="M 67.305 456.6375 
L 1183.305 456.6375 
" style="fill: none; stroke: #000000; stroke-linejoin: miter; stroke-linecap: square"/>
   </g>
   <g id="patch_6">
    <path d="M 67.305 21.7575 
L 1183.305 21.7575 
" style="fill: none; stroke: #000000; stroke-linejoin: miter; stroke-linecap: square"/>
   </g>
   <g id="text_16">
    <!-- 1#wire average temperature-2#wire average temperature-time diagram -->
    <g transform="translate(332.2325 15.7575)scale(0.16 -0.16)">
     <defs>
      <path id="DejaVuSans-23" d="M 3272 2816 
L 2363 2816 
L 2100 1772 
L 3016 1772 
L 3272 2816 
z
M 2803 4594 
L 2478 3297 
L 3391 3297 
L 3719 4594 
L 4219 4594 
L 3897 3297 
L 4872 3297 
L 4872 2816 
L 3775 2816 
L 3519 1772 
L 4513 1772 
L 4513 1294 
L 3397 1294 
L 3072 0 
L 2572 0 
L 2894 1294 
L 1978 1294 
L 1656 0 
L 1153 0 
L 1478 1294 
L 494 1294 
L 494 1772 
L 1594 1772 
L 1856 2816 
L 850 2816 
L 850 3297 
L 1978 3297 
L 2297 4594 
L 2803 4594 
z
" transform="scale(0.015625)"/>
      <path id="DejaVuSans-77" d="M 269 3500 
L 844 3500 
L 1563 769 
L 2278 3500 
L 2956 3500 
L 3675 769 
L 4391 3500 
L 4966 3500 
L 4050 0 
L 3372 0 
L 2619 2869 
L 1863 0 
L 1184 0 
L 269 3500 
z
" transform="scale(0.015625)"/>
      <path id="DejaVuSans-76" d="M 191 3500 
L 800 3500 
L 1894 563 
L 2988 3500 
L 3597 3500 
L 2284 0 
L 1503 0 
L 191 3500 
z
" transform="scale(0.015625)"/>
      <path id="DejaVuSans-67" d="M 2906 1791 
Q 2906 2416 2648 2759 
Q 2391 3103 1925 3103 
Q 1463 3103 1205 2759 
Q 947 2416 947 1791 
Q 947 1169 1205 825 
Q 1463 481 1925 481 
Q 2391 481 2648 825 
Q 2906 1169 2906 1791 
z
M 3481 434 
Q 3481 -459 3084 -895 
Q 2688 -1331 1869 -1331 
Q 1566 -1331 1297 -1286 
Q 1028 -1241 775 -1147 
L 775 -588 
Q 1028 -725 1275 -790 
Q 1522 -856 1778 -856 
Q 2344 -856 2625 -561 
Q 2906 -266 2906 331 
L 2906 616 
Q 2728 306 2450 153 
Q 2172 0 1784 0 
Q 1141 0 747 490 
Q 353 981 353 1791 
Q 353 2603 747 3093 
Q 1141 3584 1784 3584 
Q 2172 3584 2450 3431 
Q 2728 3278 2906 2969 
L 2906 3500 
L 3481 3500 
L 3481 434 
z
" transform="scale(0.015625)"/>
      <path id="DejaVuSans-2d" d="M 313 2009 
L 1997 2009 
L 1997 1497 
L 313 1497 
L 313 2009 
z
" transform="scale(0.015625)"/>
      <path id="DejaVuSans-64" d="M 2906 2969 
L 2906 4863 
L 3481 4863 
L 3481 0 
L 2906 0 
L 2906 525 
Q 2725 213 2448 61 
Q 2172 -91 1784 -91 
Q 1150 -91 751 415 
Q 353 922 353 1747 
Q 353 2572 751 3078 
Q 1150 3584 1784 3584 
Q 2172 3584 2448 3432 
Q 2725 3281 2906 2969 
z
M 947 1747 
Q 947 1113 1208 752 
Q 1469 391 1925 391 
Q 2381 391 2643 752 
Q 2906 1113 2906 1747 
Q 2906 2381 2643 2742 
Q 2381 3103 1925 3103 
Q 1469 3103 1208 2742 
Q 947 2381 947 1747 
z
" transform="scale(0.015625)"/>
     </defs>
     <use xlink:href="#DejaVuSans-31"/>
     <use xlink:href="#DejaVuSans-23" x="63.623047"/>
     <use xlink:href="#DejaVuSans-77" x="147.412109"/>
     <use xlink:href="#DejaVuSans-69" x="229.199219"/>
     <use xlink:href="#DejaVuSans-72" x="256.982422"/>
     <use xlink:href="#DejaVuSans-65" x="295.845703"/>
     <use xlink:href="#DejaVuSans-20" x="357.369141"/>
     <use xlink:href="#DejaVuSans-61" x="389.15625"/>
     <use xlink:href="#DejaVuSans-76" x="450.435547"/>
     <use xlink:href="#DejaVuSans-65" x="509.615234"/>
     <use xlink:href="#DejaVuSans-72" x="571.138672"/>
     <use xlink:href="#DejaVuSans-61" x="612.251953"/>
     <use xlink:href="#DejaVuSans-67" x="673.53125"/>
     <use xlink:href="#DejaVuSans-65" x="737.007812"/>
     <use xlink:href="#DejaVuSans-20" x="798.53125"/>
     <use xlink:href="#DejaVuSans-74" x="830.318359"/>
     <use xlink:href="#DejaVuSans-65" x="869.527344"/>
     <use xlink:href="#DejaVuSans-6d" x="931.050781"/>
     <use xlink:href="#DejaVuSans-70" x="1028.462891"/>
     <use xlink:href="#DejaVuSans-65" x="1091.939453"/>
     <use xlink:href="#DejaVuSans-72" x="1153.462891"/>
     <use xlink:href="#DejaVuSans-61" x="1194.576172"/>
     <use xlink:href="#DejaVuSans-74" x="1255.855469"/>
     <use xlink:href="#DejaVuSans-75" x="1295.064453"/>
     <use xlink:href="#DejaVuSans-72" x="1358.443359"/>
     <use xlink:href="#DejaVuSans-65" x="1397.306641"/>
     <use xlink:href="#DejaVuSans-2d" x="1458.830078"/>
     <use xlink:href="#DejaVuSans-32" x="1494.914062"/>
     <use xlink:href="#DejaVuSans-23" x="1558.537109"/>
     <use xlink:href="#DejaVuSans-77" x="1642.326172"/>
     <use xlink:href="#DejaVuSans-69" x="1724.113281"/>
     <use xlink:href="#DejaVuSans-72" x="1751.896484"/>
     <use xlink:href="#DejaVuSans-65" x="1790.759766"/>
     <use xlink:href="#DejaVuSans-20" x="1852.283203"/>
     <use xlink:href="#DejaVuSans-61" x="1884.070312"/>
     <use xlink:href="#DejaVuSans-76" x="1945.349609"/>
     <use xlink:href="#DejaVuSans-65" x="2004.529297"/>
     <use xlink:href="#DejaVuSans-72" x="2066.052734"/>
     <use xlink:href="#DejaVuSans-61" x="2107.166016"/>
     <use xlink:href="#DejaVuSans-67" x="2168.445312"/>
     <use xlink:href="#DejaVuSans-65" x="2231.921875"/>
     <use xlink:href="#DejaVuSans-20" x="2293.445312"/>
     <use xlink:href="#DejaVuSans-74" x="2325.232422"/>
     <use xlink:href="#DejaVuSans-65" x="2364.441406"/>
     <use xlink:href="#DejaVuSans-6d" x="2425.964844"/>
     <use xlink:href="#DejaVuSans-70" x="2523.376953"/>
     <use xlink:href="#DejaVuSans-65" x="2586.853516"/>
     <use xlink:href="#DejaVuSans-72" x="2648.376953"/>
     <use xlink:href="#DejaVuSans-61" x="2689.490234"/>
     <use xlink:href="#DejaVuSans-74" x="2750.769531"/>
     <use xlink:href="#DejaVuSans-75" x="2789.978516"/>
     <use xlink:href="#DejaVuSans-72" x="2853.357422"/>
     <use xlink:href="#DejaVuSans-65" x="2892.220703"/>
     <use xlink:href="#DejaVuSans-2d" x="2953.744141"/>
     <use xlink:href="#DejaVuSans-74" x="2989.828125"/>
     <use xlink:href="#DejaVuSans-69" x="3029.037109"/>
     <use xlink:href="#DejaVuSans-6d" x="3056.820312"/>
     <use xlink:href="#DejaVuSans-65" x="3154.232422"/>
     <use xlink:href="#DejaVuSans-20" x="3215.755859"/>
     <use xlink:href="#DejaVuSans-64" x="3247.542969"/>
     <use xlink:href="#DejaVuSans-69" x="3311.019531"/>
     <use xlink:href="#DejaVuSans-61" x="3338.802734"/>
     <use xlink:href="#DejaVuSans-67" x="3400.082031"/>
     <use xlink:href="#DejaVuSans-72" x="3463.558594"/>
     <use xlink:href="#DejaVuSans-61" x="3504.671875"/>
     <use xlink:href="#DejaVuSans-6d" x="3565.951172"/>
    </g>
   </g>
   <g id="legend_1">
    <g id="patch_7">
     <path d="M 904.4975 58.0425 
L 1172.105 58.0425 
Q 1175.305 58.0425 1175.305 54.8425 
L 1175.305 32.9575 
Q 1175.305 29.7575 1172.105 29.7575 
L 904.4975 29.7575 
Q 901.2975 29.7575 901.2975 32.9575 
L 901.2975 54.8425 
Q 901.2975 58.0425 904.4975 58.0425 
z
" style="fill: #ffffff; stroke: #cccccc; stroke-linejoin: miter"/>
    </g>
    <g id="line2d_119">
     <path d="M 907.6975 42.715 
L 923.6975 42.715 
L 939.6975 42.715 
" style="fill: none; stroke: #0c5da5; stroke-width: 2; stroke-linecap: square"/>
    </g>
    <g id="text_17">
     <!-- No.1&amp;2 avrg thermocouple -->
     <g transform="translate(952.4975 48.315)scale(0.16 -0.16)">
      <defs>
       <path id="DejaVuSans-4e" d="M 628 4666 
L 1478 4666 
L 3547 763 
L 3547 4666 
L 4159 4666 
L 4159 0 
L 3309 0 
L 1241 3903 
L 1241 0 
L 628 0 
L 628 4666 
z
" transform="scale(0.015625)"/>
       <path id="DejaVuSans-6f" d="M 1959 3097 
Q 1497 3097 1228 2736 
Q 959 2375 959 1747 
Q 959 1119 1226 758 
Q 1494 397 1959 397 
Q 2419 397 2687 759 
Q 2956 1122 2956 1747 
Q 2956 2369 2687 2733 
Q 2419 3097 1959 3097 
z
M 1959 3584 
Q 2709 3584 3137 3096 
Q 3566 2609 3566 1747 
Q 3566 888 3137 398 
Q 2709 -91 1959 -91 
Q 1206 -91 779 398 
Q 353 888 353 1747 
Q 353 2609 779 3096 
Q 1206 3584 1959 3584 
z
" transform="scale(0.015625)"/>
       <path id="DejaVuSans-2e" d="M 684 794 
L 1344 794 
L 1344 0 
L 684 0 
L 684 794 
z
" transform="scale(0.015625)"/>
       <path id="DejaVuSans-26" d="M 1556 2509 
Q 1272 2256 1139 2004 
Q 1006 1753 1006 1478 
Q 1006 1022 1337 719 
Q 1669 416 2169 416 
Q 2466 416 2725 514 
Q 2984 613 3213 813 
L 1556 2509 
z
M 1997 2859 
L 3584 1234 
Q 3769 1513 3872 1830 
Q 3975 2147 3994 2503 
L 4575 2503 
Q 4538 2091 4375 1687 
Q 4213 1284 3922 891 
L 4794 0 
L 4006 0 
L 3559 459 
Q 3234 181 2878 45 
Q 2522 -91 2113 -91 
Q 1359 -91 881 339 
Q 403 769 403 1441 
Q 403 1841 612 2192 
Q 822 2544 1241 2853 
Q 1091 3050 1012 3245 
Q 934 3441 934 3628 
Q 934 4134 1281 4442 
Q 1628 4750 2203 4750 
Q 2463 4750 2720 4694 
Q 2978 4638 3244 4525 
L 3244 3956 
Q 2972 4103 2725 4179 
Q 2478 4256 2266 4256 
Q 1938 4256 1733 4082 
Q 1528 3909 1528 3634 
Q 1528 3475 1620 3314 
Q 1713 3153 1997 2859 
z
" transform="scale(0.015625)"/>
       <path id="DejaVuSans-68" d="M 3513 2113 
L 3513 0 
L 2938 0 
L 2938 2094 
Q 2938 2591 2744 2837 
Q 2550 3084 2163 3084 
Q 1697 3084 1428 2787 
Q 1159 2491 1159 1978 
L 1159 0 
L 581 0 
L 581 4863 
L 1159 4863 
L 1159 2956 
Q 1366 3272 1645 3428 
Q 1925 3584 2291 3584 
Q 2894 3584 3203 3211 
Q 3513 2838 3513 2113 
z
" transform="scale(0.015625)"/>
       <path id="DejaVuSans-63" d="M 3122 3366 
L 3122 2828 
Q 2878 2963 2633 3030 
Q 2388 3097 2138 3097 
Q 1578 3097 1268 2742 
Q 959 2388 959 1747 
Q 959 1106 1268 751 
Q 1578 397 2138 397 
Q 2388 397 2633 464 
Q 2878 531 3122 666 
L 3122 134 
Q 2881 22 2623 -34 
Q 2366 -91 2075 -91 
Q 1284 -91 818 406 
Q 353 903 353 1747 
Q 353 2603 823 3093 
Q 1294 3584 2113 3584 
Q 2378 3584 2631 3529 
Q 2884 3475 3122 3366 
z
" transform="scale(0.015625)"/>
       <path id="DejaVuSans-6c" d="M 603 4863 
L 1178 4863 
L 1178 0 
L 603 0 
L 603 4863 
z
" transform="scale(0.015625)"/>
      </defs>
      <use xlink:href="#DejaVuSans-4e"/>
      <use xlink:href="#DejaVuSans-6f" x="74.804688"/>
      <use xlink:href="#DejaVuSans-2e" x="134.236328"/>
      <use xlink:href="#DejaVuSans-31" x="166.023438"/>
      <use xlink:href="#DejaVuSans-26" x="229.646484"/>
      <use xlink:href="#DejaVuSans-32" x="307.625"/>
      <use xlink:href="#DejaVuSans-20" x="371.248047"/>
      <use xlink:href="#DejaVuSans-61" x="403.035156"/>
      <use xlink:href="#DejaVuSans-76" x="464.314453"/>
      <use xlink:href="#DejaVuSans-72" x="523.494141"/>
      <use xlink:href="#DejaVuSans-67" x="562.857422"/>
      <use xlink:href="#DejaVuSans-20" x="626.333984"/>
      <use xlink:href="#DejaVuSans-74" x="658.121094"/>
      <use xlink:href="#DejaVuSans-68" x="697.330078"/>
      <use xlink:href="#DejaVuSans-65" x="760.708984"/>
      <use xlink:href="#DejaVuSans-72" x="822.232422"/>
      <use xlink:href="#DejaVuSans-6d" x="861.595703"/>
      <use xlink:href="#DejaVuSans-6f" x="959.007812"/>
      <use xlink:href="#DejaVuSans-63" x="1020.189453"/>
      <use xlink:href="#DejaVuSans-6f" x="1075.169922"/>
      <use xlink:href="#DejaVuSans-75" x="1136.351562"/>
      <use xlink:href="#DejaVuSans-70" x="1199.730469"/>
      <use xlink:href="#DejaVuSans-6c" x="1263.207031"/>
      <use xlink:href="#DejaVuSans-65" x="1290.990234"/>
     </g>
    </g>
   </g>
  </g>
 </g>
 <defs>
  <clipPath id="pb5591a3cd9">
   <rect x="67.305" y="21.7575" width="1116" height="434.88"/>
  </clipPath>
 </defs>
</svg>
